<?xml version="1.0" encoding="UTF-8" standalone="no"?>
<!DOCTYPE svg PUBLIC "-//W3C//DTD SVG 1.1//EN" "http://www.w3.org/Graphics/SVG/1.1/DTD/svg11.dtd">
<svg width="100%" height="100%" viewBox="0 0 208 196" version="1.1" xmlns="http://www.w3.org/2000/svg" xmlns:xlink="http://www.w3.org/1999/xlink" xml:space="preserve" xmlns:serif="http://www.serif.com/" style="fill-rule:evenodd;clip-rule:evenodd;stroke-linejoin:round;stroke-miterlimit:2;">
    <g>
        <path d="M133.9,144.79C122.93,150.4 111.06,153.25 98.62,153.25L96.69,153.25C84.25,153.25 72.39,150.4 61.42,144.79C48.3,138.07 40.51,124.15 41.59,109.35L45.53,55.37C45.59,54.59 46.24,53.99 47.02,53.99L63.78,53.99C64.19,53.99 64.59,54.16 64.87,54.47C65.15,54.77 65.29,55.18 65.26,55.59L61.23,110.79C60.73,117.69 64.32,124.16 70.39,127.27C78.56,131.45 87.41,133.56 96.69,133.56L98.62,133.56C107.91,133.56 116.75,131.44 124.92,127.27C130.99,124.16 134.58,117.69 134.07,110.79L130.04,55.59C130.01,55.18 130.15,54.77 130.44,54.47C130.72,54.17 131.12,53.99 131.53,53.99L148.29,53.99C149.07,53.99 149.72,54.6 149.78,55.37L153.73,109.35C154.81,124.15 147.03,138.06 133.9,144.79M97.66,0C43.72,0 0,43.72 0,97.66C0,151.6 43.72,195.32 97.66,195.32C151.6,195.32 195.32,151.59 195.32,97.66C195.32,43.73 151.59,0 97.66,0" style="fill:rgb(191,156,255);fill-rule:nonzero;"/>
        <path d="M194.69,9.13C188.31,9.13 183.11,14.33 183.11,20.71C183.11,27.09 188.31,32.29 194.69,32.29C201.07,32.29 206.27,27.09 206.27,20.71C206.27,14.33 201.07,9.13 194.69,9.13M194.69,33.54C187.62,33.54 181.86,27.79 181.86,20.71C181.86,13.63 187.62,7.88 194.69,7.88C201.76,7.88 207.52,13.63 207.52,20.71C207.52,27.79 201.76,33.54 194.69,33.54" style="fill:rgb(191,156,255);fill-rule:nonzero;"/>
        <path d="M194,20.39C194.52,20.39 194.98,20.35 195.37,20.27C195.76,20.19 196.08,20.05 196.34,19.88C196.6,19.7 196.79,19.46 196.91,19.16C197.03,18.87 197.09,18.49 197.09,18.05C197.09,17.48 197,17.02 196.82,16.68C196.64,16.34 196.33,16.09 195.88,15.94C195.44,15.79 194.83,15.71 194.06,15.71L193.48,15.71C193.32,15.71 193.16,15.71 193,15.73C192.84,15.74 192.67,15.75 192.49,15.76C192.31,15.76 192.1,15.78 191.85,15.8L191.85,20.35C192.06,20.35 192.25,20.37 192.43,20.38C192.6,20.38 192.78,20.39 192.95,20.4L193.99,20.4L194,20.39ZM199.63,26.72C199.32,26.72 199,26.67 198.68,26.55C198.37,26.44 198.05,26.26 197.73,26.03C197.41,25.79 197.08,25.49 196.74,25.12C196.4,24.75 196.04,24.31 195.66,23.79C195.28,23.27 194.88,22.67 194.46,21.99C194.35,22 194.21,22.01 194.04,22.01L192.76,22.01C192.45,22.01 192.15,22.01 191.86,21.99L191.86,26.54L189.88,26.54L189.88,14.28C190.45,14.25 190.98,14.22 191.46,14.19C191.94,14.16 192.39,14.15 192.8,14.14C193.22,14.13 193.62,14.12 194.01,14.12C194.93,14.12 195.72,14.19 196.36,14.31C197.01,14.44 197.54,14.65 197.94,14.94C198.35,15.23 198.65,15.61 198.84,16.08C199.03,16.55 199.13,17.11 199.13,17.78C199.13,18.49 199.02,19.1 198.81,19.59C198.59,20.09 198.28,20.49 197.87,20.8C197.46,21.11 196.97,21.35 196.4,21.53C196.78,22.1 197.14,22.59 197.48,23.01C197.81,23.42 198.12,23.76 198.4,24.02C198.68,24.28 198.94,24.48 199.18,24.61C199.42,24.75 199.64,24.81 199.86,24.81L199.98,24.81C200.04,24.81 200.08,24.79 200.12,24.78L200.14,26.67C200.08,26.68 200.01,26.7 199.93,26.7C199.85,26.71 199.75,26.72 199.63,26.72" style="fill:rgb(191,156,255);fill-rule:nonzero;"/>
    </g>
</svg>
