<?xml version="1.0" encoding="UTF-8"?>
<svg id="Camada_2" data-name="Camada 2" xmlns="http://www.w3.org/2000/svg" viewBox="0 0 207.52 195.32">
  <defs>
    <style>
      .cls-1 {
        fill: #810e56;
      }
    </style>
  </defs>
  <g id="Camada_1-2" data-name="Camada 1">
    <g>
      <path class="cls-1" d="m133.9,144.79c-10.97,5.61-22.84,8.46-35.28,8.46h-1.93c-12.44,0-24.3-2.85-35.27-8.46-13.12-6.72-20.91-20.64-19.83-35.44l3.94-53.98c.06-.78.71-1.38,1.49-1.38h16.76c.41,0,.81.17,1.09.48.28.3.42.71.39,1.12l-4.03,55.2c-.5,6.9,3.09,13.37,9.16,16.48,8.17,4.18,17.02,6.29,26.3,6.29h1.93c9.29,0,18.13-2.12,26.3-6.29,6.07-3.11,9.66-9.58,9.15-16.48l-4.03-55.2c-.03-.41.11-.82.4-1.12.28-.3.68-.48,1.09-.48h16.76c.78,0,1.43.61,1.49,1.38l3.95,53.98c1.08,14.8-6.7,28.71-19.83,35.44M97.66,0C43.72,0,0,43.72,0,97.66s43.72,97.66,97.66,97.66,97.66-43.73,97.66-97.66S151.59,0,97.66,0"/>
      <path class="cls-1" d="m194.69,9.13c-6.38,0-11.58,5.2-11.58,11.58s5.2,11.58,11.58,11.58,11.58-5.2,11.58-11.58-5.2-11.58-11.58-11.58m0,24.41c-7.07,0-12.83-5.75-12.83-12.83s5.76-12.83,12.83-12.83,12.83,5.75,12.83,12.83-5.76,12.83-12.83,12.83"/>
      <path class="cls-1" d="m194,20.39c.52,0,.98-.04,1.37-.12.39-.08.71-.22.97-.39.26-.18.45-.42.57-.72.12-.29.18-.67.18-1.11,0-.57-.09-1.03-.27-1.37-.18-.34-.49-.59-.94-.74-.44-.15-1.05-.23-1.82-.23h-.58c-.16,0-.32,0-.48.02-.16.01-.33.02-.51.03-.18,0-.39.02-.64.04v4.55c.21,0,.4.02.58.03.17,0,.35.01.52.02.17,0,.35,0,.52,0h.52Zm5.63,6.33c-.31,0-.63-.05-.95-.17-.31-.11-.63-.29-.95-.52-.32-.24-.65-.54-.99-.91-.34-.37-.7-.81-1.08-1.33-.38-.52-.78-1.12-1.2-1.8-.11.01-.25.02-.42.02h-1.28c-.31,0-.61,0-.9-.02v4.55h-1.98v-12.26c.57-.03,1.1-.06,1.58-.09.48-.03.93-.04,1.34-.05.42-.01.82-.02,1.21-.02.92,0,1.71.07,2.35.19.65.13,1.18.34,1.58.63.41.29.71.67.9,1.14.19.47.29,1.03.29,1.7,0,.71-.11,1.32-.32,1.81-.22.5-.53.9-.94,1.21-.41.31-.9.55-1.47.73.38.57.74,1.06,1.08,1.48.33.41.64.75.92,1.01.28.26.54.46.78.59.24.14.46.2.68.2.02,0,.06,0,.12,0,.06,0,.1-.02.14-.03l.02,1.89c-.06.01-.13.03-.21.03-.08.01-.18.02-.3.02"/>
    </g>
  </g>
</svg>