<?xml version="1.0" encoding="UTF-8" standalone="no"?>
<!DOCTYPE svg PUBLIC "-//W3C//DTD SVG 1.1//EN" "http://www.w3.org/Graphics/SVG/1.1/DTD/svg11.dtd">
<svg width="100%" height="100%" viewBox="0 0 1193 535" version="1.1" xmlns="http://www.w3.org/2000/svg" xmlns:xlink="http://www.w3.org/1999/xlink" xml:space="preserve" xmlns:serif="http://www.serif.com/" style="fill-rule:evenodd;clip-rule:evenodd;stroke-linejoin:round;stroke-miterlimit:2;">
    <g transform="matrix(1,0,0,1,-1769.714583,-2973.578333)">
        <g transform="matrix(4.166667,0,0,4.166667,0,0)">
            <g transform="matrix(1,0,0,1,-237.380989,196.56)">
                <g>
                    <g transform="matrix(0.501527,-0,0,0.501527,624.931613,521.51883)">
                        <path d="M417.939,217.577L412.988,217.577C412.748,217.577 412.553,217.772 412.553,218.012L412.553,246.144C412.553,246.384 412.748,246.579 412.988,246.579L417.939,246.579C418.179,246.579 418.374,246.384 418.374,246.144L418.374,218.012C418.374,217.772 418.179,217.577 417.939,217.577Z" style="fill:rgb(129,14,86);fill-rule:nonzero;"/>
                    </g>
                    <g transform="matrix(0.501527,-0,0,0.501527,624.931613,521.51883)">
                        <path d="M452.342,218.48C449.717,217.644 446.572,217.042 442.491,217.042C438.41,217.042 435.283,217.661 432.64,218.48C428.71,219.735 426.067,223.347 426.067,227.495L426.067,236.443C426.067,240.591 428.71,244.204 432.64,245.458C435.249,246.294 438.728,246.913 442.508,246.913C446.288,246.913 449.733,246.294 452.359,245.458C456.29,244.204 458.932,240.591 458.932,236.443L458.932,227.495C458.932,223.347 456.29,219.735 452.359,218.48L452.342,218.48ZM453.095,227.495L453.095,236.443C453.095,238.032 452.092,239.437 450.586,239.905C448.195,240.658 445.468,241.059 442.491,241.076C439.514,241.059 436.788,240.658 434.38,239.905C432.874,239.42 431.871,238.032 431.871,236.443L431.871,227.495C431.871,225.906 432.891,224.501 434.38,224.033C436.788,223.264 439.497,222.879 442.475,222.862C445.452,222.879 448.178,223.28 450.586,224.033C452.092,224.518 453.095,225.906 453.095,227.495Z" style="fill:rgb(129,14,86);fill-rule:nonzero;"/>
                    </g>
                    <g transform="matrix(0.501527,-0,0,0.501527,624.931613,521.51883)">
                        <path d="M595.359,215.62L588.485,215.62L588.485,205.435C588.485,205.184 588.284,205 588.05,205L583.116,205C582.882,205 582.682,205.201 582.682,205.435L582.682,238.551C582.682,242.966 586.277,246.562 590.693,246.562L593.486,246.562C593.737,246.562 593.921,246.361 593.921,246.127L593.921,241.193C593.921,240.942 593.72,240.758 593.486,240.758L590.693,240.758C589.489,240.758 588.502,239.772 588.502,238.567L588.502,221.458L595.376,221.458C595.627,221.458 595.811,221.257 595.811,221.023L595.811,216.089C595.811,215.838 595.61,215.654 595.376,215.654L595.359,215.62Z" style="fill:rgb(129,14,86);fill-rule:nonzero;"/>
                    </g>
                    <g transform="matrix(0.501527,-0,0,0.501527,624.931613,521.51883)">
                        <path d="M399.407,219.601C396.163,217.945 392.667,217.109 388.988,217.109L388.419,217.109C384.739,217.109 381.244,217.945 377.999,219.601C374.119,221.591 371.828,225.689 372.145,230.071L373.316,246.177C373.333,246.411 373.517,246.579 373.751,246.579L378.702,246.579C378.819,246.579 378.936,246.528 379.019,246.445C379.103,246.361 379.153,246.227 379.136,246.11L377.932,229.636C377.782,227.596 378.852,225.689 380.642,224.769C383.05,223.531 385.659,222.913 388.402,222.913L388.971,222.913C391.714,222.913 394.34,223.531 396.731,224.769C398.521,225.689 399.591,227.596 399.441,229.636L398.237,246.11C398.237,246.227 398.27,246.344 398.354,246.445C398.437,246.545 398.554,246.579 398.671,246.579L403.622,246.579C403.856,246.579 404.04,246.395 404.057,246.177L405.228,230.071C405.545,225.689 403.254,221.591 399.374,219.601L399.407,219.601Z" style="fill:rgb(129,14,86);fill-rule:nonzero;"/>
                    </g>
                    <g transform="matrix(0.501527,-0,0,0.501527,624.931613,521.51883)">
                        <path d="M570.104,219.601C566.859,217.945 563.364,217.109 559.684,217.109L559.116,217.109C555.436,217.109 551.941,217.945 548.696,219.601C544.816,221.591 542.524,225.689 542.842,230.071L544.013,246.177C544.03,246.411 544.214,246.579 544.448,246.579L549.398,246.579C549.515,246.579 549.633,246.528 549.716,246.445C549.8,246.361 549.85,246.227 549.833,246.11L548.629,229.636C548.478,227.596 549.549,225.689 551.338,224.769C553.747,223.531 556.356,222.913 559.099,222.913L559.668,222.913C562.411,222.913 565.036,223.531 567.428,224.769C569.218,225.689 570.288,227.596 570.138,229.636L568.933,246.11C568.933,246.227 568.967,246.344 569.05,246.445C569.134,246.545 569.251,246.579 569.368,246.579L574.319,246.579C574.553,246.579 574.737,246.395 574.754,246.177L575.924,230.071C576.242,225.689 573.951,221.591 570.071,219.601L570.104,219.601Z" style="fill:rgb(129,14,86);fill-rule:nonzero;"/>
                    </g>
                    <g transform="matrix(0.501527,-0,0,0.501527,624.931613,521.51883)">
                        <path d="M366.124,217.577L361.174,217.577C361.056,217.577 360.939,217.627 360.856,217.711C360.772,217.795 360.722,217.929 360.739,218.046L361.926,234.353C362.077,236.393 361.023,238.3 359.217,239.22C356.808,240.457 354.199,241.076 351.456,241.076L350.888,241.076C348.145,241.076 345.536,240.457 343.127,239.22C341.338,238.3 340.267,236.393 340.418,234.353L341.605,218.046C341.605,217.929 341.572,217.811 341.488,217.711C341.404,217.611 341.287,217.577 341.17,217.577L336.22,217.577C335.985,217.577 335.802,217.761 335.785,217.979L334.614,233.918C334.296,238.283 336.588,242.397 340.468,244.388C343.713,246.043 347.208,246.88 350.888,246.88L351.456,246.88C355.136,246.88 358.631,246.043 361.876,244.388C365.756,242.397 368.048,238.3 367.73,233.918L366.559,217.979C366.542,217.745 366.342,217.577 366.124,217.577Z" style="fill:rgb(129,14,86);fill-rule:nonzero;"/>
                    </g>
                    <g transform="matrix(0.501527,-0,0,0.501527,624.931613,521.51883)">
                        <path d="M417.939,205.836L412.988,205.836C412.748,205.836 412.553,206.031 412.553,206.271L412.553,213.011C412.553,213.251 412.748,213.446 412.988,213.446L417.939,213.446C418.179,213.446 418.374,213.251 418.374,213.011L418.374,206.271C418.374,206.031 418.179,205.836 417.939,205.836Z" style="fill:rgb(129,14,86);fill-rule:nonzero;"/>
                    </g>
                    <g transform="matrix(0.501527,-0,0,0.501527,624.931613,521.51883)">
                        <path d="M501.012,242.565C501.012,242.565 499.591,241.243 497.885,239.604C497.5,239.236 497.283,238.718 497.283,238.166L497.283,205.435C497.283,205.184 497.082,205 496.848,205L491.914,205C491.663,205 491.479,205.201 491.479,205.435L491.479,218.782C491.228,218.681 490.994,218.564 490.727,218.48C488.101,217.644 484.956,217.042 480.875,217.042C476.794,217.042 473.667,217.661 471.024,218.48C467.094,219.735 464.451,223.347 464.451,227.495L464.451,236.443C464.451,240.591 467.094,244.204 471.024,245.458C473.633,246.294 477.112,246.913 480.892,246.913C484.672,246.913 488.117,246.294 490.743,245.458C491.947,245.073 493.018,244.438 493.954,243.669C495.727,245.374 497.199,246.763 497.199,246.763C497.45,246.997 497.835,246.98 498.069,246.729L501.079,243.468C501.314,243.217 501.297,242.832 501.046,242.598L501.012,242.565ZM491.446,236.443C491.446,238.032 490.442,239.437 488.937,239.905C486.545,240.658 483.819,241.059 480.842,241.076C477.865,241.059 475.139,240.658 472.73,239.905C471.225,239.42 470.221,238.032 470.221,236.443L470.221,227.495C470.221,225.906 471.242,224.502 472.73,224.033C475.139,223.264 477.848,222.879 480.825,222.862C483.802,222.879 486.528,223.281 488.937,224.033C490.442,224.518 491.446,225.906 491.446,227.495L491.446,236.443Z" style="fill:rgb(129,14,86);fill-rule:nonzero;"/>
                    </g>
                    <g transform="matrix(0.501527,-0,0,0.501527,624.931613,521.51883)">
                        <path d="M531.151,218.48C528.525,217.644 525.381,217.042 521.3,217.042C517.219,217.042 514.092,217.661 511.449,218.48C507.519,219.735 504.876,223.347 504.876,227.495L504.876,236.443C504.876,240.591 507.519,244.204 511.449,245.458C514.058,246.294 517.537,246.913 521.317,246.913C525.097,246.913 528.542,246.294 531.168,245.458C535.098,244.204 537.741,240.591 537.741,236.443L537.741,227.495C537.741,223.347 535.098,219.735 531.168,218.48L531.151,218.48ZM531.904,227.495L531.904,236.443C531.904,238.032 530.9,239.437 529.395,239.905C527.003,240.658 524.277,241.059 521.3,241.076C518.323,241.059 515.597,240.658 513.188,239.905C511.683,239.42 510.68,238.032 510.68,236.443L510.68,227.495C510.68,225.906 511.7,224.501 513.188,224.033C515.597,223.264 518.306,222.879 521.283,222.862C524.261,222.879 526.987,223.28 529.395,224.033C530.9,224.518 531.904,225.906 531.904,227.495Z" style="fill:rgb(129,14,86);fill-rule:nonzero;"/>
                    </g>
                    <g transform="matrix(0.501527,-0,0,0.501527,624.931613,521.51883)">
                        <path d="M626.133,218.48C623.507,217.644 620.363,217.042 616.282,217.042C612.201,217.042 609.074,217.661 606.431,218.48C602.501,219.735 599.858,223.347 599.858,227.495L599.858,236.443C599.858,240.591 602.501,244.204 606.431,245.458C609.04,246.294 612.519,246.913 616.299,246.913C620.079,246.913 623.524,246.294 626.15,245.458C630.08,244.204 632.723,240.591 632.723,236.443L632.723,227.495C632.723,223.347 630.08,219.735 626.15,218.48L626.133,218.48ZM626.886,227.495L626.886,236.443C626.886,238.032 625.882,239.437 624.377,239.905C621.986,240.658 619.259,241.059 616.282,241.076C613.305,241.059 610.579,240.658 608.171,239.905C606.665,239.42 605.662,238.032 605.662,236.443L605.662,227.495C605.662,225.906 606.682,224.501 608.171,224.033C610.579,223.264 613.288,222.879 616.266,222.862C619.243,222.879 621.969,223.28 624.377,224.033C625.882,224.518 626.886,225.906 626.886,227.495Z" style="fill:rgb(129,14,86);fill-rule:nonzero;"/>
                    </g>
                </g>
                <g transform="matrix(1.016287,0,0,1.016287,-12.910978,-9.792371)">
                    <g transform="matrix(0.492457,-0,0,0.492457,628.687805,525.950042)">
                        <path d="M555.77,148.076L555.77,23.415L583.914,23.415L583.914,64.163C588.633,61.17 593.238,58.983 597.727,57.602C602.331,56.221 606.935,55.53 611.54,55.53C622.245,55.53 630.302,59.444 635.712,67.271C641.237,75.098 644,86.667 644,101.976C644,114.062 642.331,123.846 638.993,131.328C635.77,138.81 630.59,144.278 623.453,147.731C616.432,151.184 607.223,152.911 595.828,152.911C590.187,152.911 583.914,152.45 577.008,151.53C570.216,150.724 563.137,149.573 555.77,148.076ZM583.914,130.81C586.331,131.386 588.633,131.846 590.82,132.192C593.007,132.537 595.022,132.71 596.864,132.71C601.007,132.71 604.403,131.846 607.051,130.12C609.698,128.278 611.655,125.285 612.921,121.141C614.187,116.882 614.82,111.184 614.82,104.048C614.82,98.062 614.302,93.285 613.266,89.717C612.23,86.034 610.676,83.329 608.605,81.602C606.533,79.875 603.943,79.012 600.835,79.012C599.108,79.012 597.382,79.185 595.655,79.53C593.928,79.875 592.087,80.451 590.13,81.257C588.288,82.062 586.216,83.041 583.914,84.192L583.914,130.81Z" style="fill:rgb(255,99,126);fill-rule:nonzero;"/>
                    </g>
                    <g transform="matrix(0.492457,-0,0,0.492457,626.767805,525.950042)">
                        <path d="M481.384,152.911C475.859,152.911 471.025,151.933 466.881,149.976C462.737,147.904 459.456,144.738 457.039,140.479C454.737,136.22 453.586,130.926 453.586,124.595L453.586,57.257L481.902,57.257L481.902,117.861C481.902,121.774 482.881,124.71 484.838,126.667C486.794,128.508 489.499,129.429 492.953,129.429C494.794,129.429 496.521,129.256 498.133,128.911C499.859,128.566 501.528,128.048 503.14,127.357C504.866,126.667 506.708,125.861 508.665,124.94L508.665,57.257L536.981,57.257L536.981,122.005C536.981,123.731 537.154,125.113 537.499,126.149C537.845,127.069 538.363,127.76 539.053,128.22C539.744,128.681 540.55,128.911 541.47,128.911C542.737,128.911 543.945,128.623 545.096,128.048L547.514,148.422C546.017,149.228 544.348,149.976 542.506,150.666C540.665,151.357 538.593,151.875 536.291,152.22C534.104,152.681 531.859,152.911 529.557,152.911C525.298,152.911 521.73,152.105 518.852,150.494C516.089,148.767 513.845,146.407 512.118,143.415C508.78,145.371 505.499,147.098 502.276,148.594C499.053,149.976 495.715,151.012 492.262,151.702C488.924,152.508 485.298,152.911 481.384,152.911Z" style="fill:rgb(255,99,126);fill-rule:nonzero;"/>
                    </g>
                    <g transform="matrix(0.499493,-0,0,0.499493,625.611743,525.736677)">
                        <path d="M334.585,151.184L334.585,30.322L363.764,30.322L363.764,83.329L407.966,83.329L407.966,30.322L437.145,30.322L437.145,151.184L407.966,151.184L407.966,109.4L363.764,109.4L363.764,151.184L334.585,151.184Z" style="fill:rgb(255,99,126);fill-rule:nonzero;"/>
                    </g>
                </g>
                <g transform="matrix(1,0,0,1,7.68,0)">
                    <g transform="matrix(0.514092,-0,0,0.514092,622.044687,517.0988)">
                        <path d="M168.084,0C110.048,0 63,47.048 63,105.084C63,163.12 110.048,210.168 168.084,210.168C226.12,210.168 273.168,163.12 273.168,105.084C273.168,47.048 226.104,0 168.084,0ZM207.087,155.795C195.279,161.833 182.518,164.893 169.121,164.893L167.047,164.893C153.667,164.893 140.889,161.833 129.098,155.795C114.982,148.553 106.602,133.584 107.757,117.661L112.005,59.575C112.072,58.739 112.774,58.086 113.61,58.086L131.657,58.086C132.092,58.086 132.526,58.27 132.827,58.605C133.129,58.923 133.279,59.374 133.246,59.809L128.914,119.2C128.379,126.626 132.242,133.584 138.765,136.929C147.546,141.428 157.079,143.702 167.064,143.702L169.138,143.702C179.123,143.702 188.639,141.428 197.437,136.929C203.96,133.584 207.823,126.626 207.288,119.2L202.956,59.809C202.923,59.374 203.073,58.939 203.374,58.605C203.675,58.287 204.093,58.086 204.545,58.086L222.575,58.086C223.411,58.086 224.113,58.739 224.18,59.575L228.428,117.661C229.599,133.584 221.22,148.553 207.087,155.795Z" style="fill:rgb(191,156,255);fill-rule:nonzero;"/>
                    </g>
                    <g transform="matrix(0.514092,-0,0,0.514092,622.044687,517.0988)">
                        <path d="M272.482,36.093C264.873,36.093 258.684,29.904 258.684,22.295C258.684,14.685 264.873,8.496 272.482,8.496C280.092,8.496 286.281,14.685 286.281,22.295C286.281,29.904 280.092,36.093 272.482,36.093ZM272.482,9.834C265.608,9.834 260.022,15.421 260.022,22.295C260.022,29.169 265.608,34.755 272.482,34.755C279.356,34.755 284.943,29.169 284.943,22.295C284.943,15.421 279.356,9.834 272.482,9.834Z" style="fill:rgb(191,156,255);fill-rule:nonzero;"/>
                    </g>
                    <g transform="matrix(0.514092,-0,0,0.514092,622.044687,517.0988)">
                        <path d="M277.801,28.75C277.467,28.75 277.115,28.684 276.781,28.567C276.446,28.449 276.095,28.265 275.761,27.998C275.409,27.747 275.058,27.413 274.69,27.011C274.322,26.61 273.938,26.141 273.536,25.573C273.135,25.021 272.7,24.369 272.248,23.649C272.131,23.649 271.981,23.666 271.797,23.666L270.409,23.666C270.074,23.666 269.756,23.666 269.439,23.649L269.439,28.55L267.314,28.55L267.314,15.354C267.933,15.32 268.502,15.287 269.004,15.253C269.522,15.22 269.99,15.203 270.442,15.203C270.894,15.203 271.328,15.186 271.747,15.186C272.733,15.186 273.586,15.253 274.272,15.387C274.975,15.521 275.543,15.755 275.978,16.073C276.413,16.391 276.747,16.792 276.948,17.294C277.149,17.796 277.266,18.398 277.266,19.117C277.266,19.886 277.149,20.538 276.915,21.074C276.681,21.609 276.346,22.044 275.911,22.378C275.476,22.713 274.941,22.964 274.322,23.164C274.74,23.783 275.125,24.302 275.476,24.753C275.828,25.205 276.162,25.556 276.463,25.84C276.764,26.125 277.048,26.342 277.299,26.476C277.55,26.626 277.801,26.693 278.019,26.693L278.152,26.693C278.219,26.693 278.269,26.693 278.303,26.66L278.303,28.7C278.303,28.7 278.186,28.717 278.102,28.734C278.019,28.75 277.901,28.75 277.784,28.75L277.801,28.75ZM271.747,21.943C272.315,21.943 272.8,21.893 273.218,21.81C273.637,21.726 273.988,21.575 274.255,21.391C274.54,21.191 274.74,20.94 274.874,20.622C275.008,20.304 275.075,19.903 275.075,19.435C275.075,18.816 274.975,18.331 274.791,17.963C274.59,17.595 274.255,17.327 273.787,17.16C273.302,16.993 272.65,16.909 271.83,16.909L271.211,16.909C271.027,16.909 270.86,16.909 270.693,16.926C270.526,16.942 270.342,16.942 270.141,16.959C269.94,16.959 269.723,16.976 269.455,17.009L269.455,21.91C269.689,21.91 269.89,21.927 270.074,21.943C270.258,21.943 270.459,21.943 270.643,21.96L271.747,21.96L271.747,21.943Z" style="fill:rgb(191,156,255);fill-rule:nonzero;"/>
                    </g>
                </g>
            </g>
        </g>
    </g>
</svg>
