<svg width="957" height="246" viewBox="0 0 957 246" fill="none" xmlns="http://www.w3.org/2000/svg">
<g clip-path="url(#clip0_72_13)">
<path d="M129.778 140.336C119.14 145.772 107.644 148.538 95.5895 148.538H93.7114C81.6572 148.538 70.1606 145.772 59.5298 140.336C46.808 133.821 39.2659 120.329 40.3077 105.986L44.1301 53.6751C44.1888 52.9194 44.8197 52.3325 45.5754 52.3325H61.8262L62.8753 52.7947L63.2642 53.8805L59.3537 107.372C58.8695 114.063 62.3471 120.329 68.2311 123.344C76.1474 127.394 84.7239 129.441 93.7114 129.441H95.5895C104.584 129.441 113.154 127.394 121.077 123.344C126.961 120.329 130.439 114.063 129.947 107.372L126.044 53.8805L126.426 52.7947L127.482 52.3325H143.725C144.481 52.3325 145.112 52.9194 145.171 53.6751L148.993 105.986C150.042 120.329 142.5 133.806 129.778 140.336ZM94.6505 0C42.3766 0 0 42.3766 0 94.6505C0 146.932 42.3766 189.308 94.6505 189.308C146.924 189.308 189.301 146.932 189.301 94.6505C189.301 42.3766 146.924 0 94.6505 0Z" fill="#BF9CFF"/>
<path d="M363.478 41.8917H347.124C346.322 41.8917 345.67 42.5436 345.67 43.3459V136.458C345.67 137.267 346.322 137.912 347.124 137.912H363.478C364.281 137.912 364.933 137.267 364.933 136.458V43.3459C364.933 42.5436 364.281 41.8917 363.478 41.8917Z" fill="white"/>
<path d="M302.112 48.5588C291.381 43.0715 279.783 40.2849 267.626 40.2849H265.735C253.578 40.2849 241.973 43.0715 231.235 48.5588C218.398 55.135 210.79 68.7314 211.851 83.2162L215.748 136.563C215.805 137.323 216.435 137.917 217.202 137.917H233.599L234.659 137.444L235.046 136.356L231.063 81.8193C230.569 75.0569 234.086 68.7458 240.018 65.7084C247.984 61.618 256.637 59.5477 265.735 59.5477H267.626C276.717 59.5477 285.37 61.618 293.336 65.7084C299.275 68.7458 302.785 75.0569 302.291 81.8193L298.308 136.356L298.695 137.444L299.755 137.917H316.152C316.912 137.917 317.549 137.323 317.606 136.563L321.503 83.2162C322.564 68.7314 314.949 55.1278 302.112 48.5588Z" fill="white"/>
<path d="M363.478 3H347.124C346.322 3 345.67 3.65189 345.67 4.4542V26.7329C345.67 27.5424 346.322 28.1943 347.124 28.1943H363.478C364.281 28.1943 364.933 27.5424 364.933 26.7329V4.4542C364.933 3.65189 364.281 3 363.478 3Z" fill="white"/>
<path fill-rule="evenodd" clip-rule="evenodd" d="M714.948 61.5511C712.019 61.2123 708.999 60.923 705.88 60.916C687.088 60.055 684.413 62.4261 677.244 64.7125C672.339 66.272 669.044 70.8236 669.044 76.0244V136.486C669.044 137.277 668.402 137.919 667.611 137.919H651.501C650.71 137.919 650.068 137.277 650.068 136.486V70.3719C650.068 68.6148 649.348 66.9283 648.078 65.7075C642.489 60.3302 637.86 56.0398 637.86 56.0398C637.042 55.2847 636.992 54.0074 637.747 53.1889L647.591 42.5403C648.346 41.7217 649.624 41.6723 650.442 42.4274C650.442 42.4274 655.262 46.9155 661.041 52.4973C664.062 49.9498 667.555 47.8893 671.507 46.6332C680.059 43.9093 691.286 41.8911 703.629 41.8911C713.155 41.8911 716.747 42.4062 722.936 44.0363C722.943 44.0363 723.324 44.1492 723.514 44.1986C724.234 44.5091 724.742 45.2289 724.742 46.0616C724.742 46.4215 724.651 46.7532 724.495 47.0425C724.142 47.6705 724.425 47.1483 724.495 47.0425V47.0354C724.495 47.0354 718.808 58.5872 717.065 60.9936C716.775 61.4029 716.253 61.6075 715.717 61.6499C715.667 61.6499 715.625 61.6499 715.576 61.6499C715.357 61.6499 715.145 61.6146 714.948 61.5511Z" fill="white"/>
<path d="M937.309 76.5125V106.134C937.309 111.413 933.964 116.027 928.985 117.61C921.041 120.124 912.029 121.435 902.201 121.5C892.329 121.435 883.31 120.124 875.366 117.61C870.38 116.027 867.027 111.413 867.027 106.134V76.5125C867.027 71.233 870.38 66.6268 875.366 65.0436C883.31 62.5149 892.329 61.2111 902.143 61.1395C912 61.2111 921.034 62.5149 928.985 65.0436C933.964 66.6268 937.309 71.233 937.309 76.5125ZM934.816 46.6762H934.809C926.098 43.9254 915.704 41.891 902.172 41.891C888.64 41.891 878.274 43.9111 869.535 46.6762C856.518 50.8096 847.772 62.8014 847.772 76.5125V106.134C847.772 119.845 856.518 131.837 869.535 135.963C878.195 138.721 889.671 140.777 902.201 140.777C914.73 140.777 926.127 138.728 934.809 135.963C947.825 131.837 956.572 119.845 956.572 106.134V76.5125C956.572 62.8014 947.832 50.8096 934.816 46.6762Z" fill="white"/>
<path d="M434.316 137.916L388.753 41.8926H410.179L435.895 99.3984C438.676 105.606 441.231 112.057 443.564 118.75C445.37 113.683 447.888 107.594 451.121 100.483L477.734 41.8926H498.601L453.265 137.916H434.316Z" fill="white"/>
<path d="M603.06 106.951L623.93 108.964C620.634 118.467 614.54 125.842 605.638 131.089C596.736 136.337 585.365 138.958 571.527 138.958C554.099 138.958 540.279 134.775 530.067 126.411C519.86 118.044 514.753 106.31 514.753 91.2123C514.753 75.5884 519.915 63.4602 530.237 54.8352C540.56 46.2065 553.947 41.8904 570.405 41.8904C586.34 41.8904 599.355 46.1171 609.453 54.5702C619.55 63.0234 624.601 74.9188 624.601 90.2491C624.601 91.184 624.564 92.5809 624.49 94.447H535.624C536.373 104.648 540.072 112.46 546.732 117.883C553.387 123.306 561.692 126.017 571.642 126.017C579.046 126.017 585.365 124.498 590.605 121.468C595.839 118.438 599.99 113.599 603.06 106.951ZM536.745 81.5057H603.28C602.384 73.6937 599.843 67.8339 595.651 63.9297C589.221 57.8656 580.88 54.8352 570.631 54.8352C561.356 54.8352 553.557 57.2529 547.238 62.092C540.914 66.931 537.416 73.4036 536.745 81.5057Z" fill="white"/>
<path d="M724.742 109.139L746.913 106.689C748.158 112.929 751.627 117.707 757.315 121.031C763.003 124.355 770.951 126.017 781.164 126.017C791.458 126.017 799.1 124.544 804.079 121.6C809.063 118.656 811.553 115.2 811.553 111.238C811.553 107.681 809.354 104.88 804.951 102.842C801.88 101.442 794.239 99.6652 782.036 97.509C765.595 94.5934 754.198 92.0716 747.847 89.944C741.496 87.8164 736.68 84.8723 733.4 81.1114C730.119 77.3506 728.482 73.1956 728.482 68.6503C728.482 64.5098 729.828 60.677 732.527 57.1489C735.226 53.6244 738.899 50.6945 743.551 48.3627C747.035 46.5539 751.79 45.0246 757.81 43.7709C763.829 42.5173 770.288 41.8904 777.18 41.8904C787.556 41.8904 796.667 42.94 804.518 45.0389C812.364 47.1378 818.154 49.9782 821.888 53.5636C825.628 57.149 828.198 61.9449 829.611 67.9516L807.691 70.0508C806.696 65.2691 803.808 61.5368 799.034 58.8576C794.259 56.1749 787.515 54.8316 778.797 54.8316C768.502 54.8316 761.151 56.0278 756.754 58.4169C752.351 60.8095 750.153 63.6069 750.153 66.8126C750.153 68.8543 751.066 70.692 752.892 72.3218C754.718 74.0124 757.585 75.4129 761.483 76.5196C763.727 77.1035 770.328 78.4428 781.286 80.5417C797.146 83.5146 808.211 85.9505 814.481 87.8453C820.75 89.74 825.668 92.4945 829.239 96.1085C832.81 99.7226 834.596 104.211 834.596 109.576C834.596 114.824 832.412 119.763 828.056 124.397C823.694 129.032 817.404 132.618 809.185 135.154C800.967 137.69 791.667 138.957 781.286 138.957C764.099 138.957 751.005 136.45 741.996 131.436C732.987 126.421 727.237 118.989 724.742 109.139Z" fill="white"/>
<path d="M705.5 246L716.7 175.8C719.3 175.667 721.567 175.567 723.5 175.5C725.5 175.367 727.267 175.267 728.8 175.2C730.4 175.133 731.767 175.1 732.9 175.1C734.033 175.033 735.067 175 736 175C741.933 175 746.767 175.7 750.5 177.1C754.233 178.5 756.933 180.633 758.6 183.5C760.333 186.367 761.2 189.967 761.2 194.3C761.2 198.9 760.567 202.933 759.3 206.4C758.1 209.867 756.267 212.8 753.8 215.2C751.333 217.533 748.233 219.3 744.5 220.5C740.833 221.633 736.567 222.2 731.7 222.2C729.767 222.2 728.067 222.2 726.6 222.2C725.2 222.2 723.767 222.167 722.3 222.1C720.9 222.033 719.267 221.967 717.4 221.9L713.5 246H705.5ZM723.6 182.2L718.4 215.1C720.267 215.167 721.9 215.233 723.3 215.3C724.767 215.367 726.167 215.433 727.5 215.5C728.833 215.5 730.167 215.5 731.5 215.5C735.3 215.5 738.567 215.033 741.3 214.1C744.033 213.167 746.267 211.833 748 210.1C749.733 208.367 751 206.3 751.8 203.9C752.667 201.433 753.1 198.667 753.1 195.6C753.1 192.333 752.5 189.7 751.3 187.7C750.167 185.7 748.333 184.2 745.8 183.2C743.267 182.2 739.867 181.7 735.6 181.7C734.8 181.7 734 181.733 733.2 181.8C732.4 181.8 731.533 181.833 730.6 181.9C729.733 181.9 728.7 181.933 727.5 182C726.367 182.067 725.067 182.133 723.6 182.2ZM781.938 247C777.738 247 774.238 246.333 771.438 245C768.638 243.6 766.505 241.5 765.038 238.7C763.572 235.9 762.838 232.367 762.838 228.1C762.838 224.967 763.038 221.933 763.438 219C763.905 216 764.572 213.133 765.438 210.4C766.305 207.6 767.405 205.067 768.738 202.8C770.072 200.467 771.638 198.433 773.438 196.7C775.238 194.967 777.272 193.633 779.538 192.7C781.872 191.767 784.405 191.3 787.138 191.3C791.138 191.3 794.538 192 797.338 193.4C800.138 194.8 802.272 196.933 803.738 199.8C805.272 202.6 806.038 206.133 806.038 210.4C806.038 213.667 805.805 216.833 805.338 219.9C804.938 222.9 804.305 225.767 803.438 228.5C802.572 231.233 801.472 233.733 800.138 236C798.872 238.267 797.338 240.233 795.538 241.9C793.805 243.5 791.805 244.767 789.538 245.7C787.272 246.567 784.738 247 781.938 247ZM781.638 240.7C783.505 240.7 785.205 240.3 786.738 239.5C788.338 238.633 789.738 237.5 790.938 236.1C792.138 234.633 793.205 232.933 794.138 231C795.072 229.067 795.838 226.967 796.438 224.7C797.038 222.367 797.472 219.967 797.738 217.5C798.072 215.033 798.238 212.533 798.238 210C798.238 205.8 797.238 202.7 795.238 200.7C793.305 198.633 790.638 197.6 787.238 197.6C785.372 197.6 783.672 198.033 782.138 198.9C780.605 199.767 779.205 200.967 777.938 202.5C776.672 203.967 775.572 205.7 774.638 207.7C773.772 209.633 773.005 211.733 772.338 214C771.738 216.267 771.272 218.6 770.938 221C770.672 223.333 770.538 225.667 770.538 228C770.538 232.4 771.472 235.633 773.338 237.7C775.272 239.7 778.038 240.7 781.638 240.7ZM827.048 192.4L825.948 199C828.081 197.2 830.048 195.767 831.848 194.7C833.648 193.567 835.381 192.733 837.048 192.2C838.781 191.667 840.481 191.4 842.148 191.4C843.548 191.4 844.814 191.5 845.948 191.7C847.148 191.9 848.214 192.167 849.148 192.5L846.848 200C845.781 199.667 844.648 199.433 843.448 199.3C842.314 199.1 841.214 199 840.148 199C838.014 199 835.748 199.5 833.348 200.5C831.014 201.5 828.448 203.233 825.648 205.7L819.248 246H811.448L819.948 192.4H827.048ZM876.938 238.4L876.838 244.7C874.638 245.5 872.505 246.067 870.438 246.4C868.372 246.8 866.372 247 864.438 247C862.105 247 860.105 246.633 858.438 245.9C856.772 245.167 855.472 244.033 854.538 242.5C853.672 240.9 853.238 238.833 853.238 236.3C853.238 235.5 853.272 234.567 853.338 233.5C853.472 232.367 853.605 231.267 853.738 230.2L858.738 198.6H850.338L851.338 193.2L859.838 192.4L863.038 179.7H869.638L867.638 192.4H884.138L883.038 198.6H866.638L861.638 229.7C861.572 230.367 861.505 231 861.438 231.6C861.372 232.2 861.338 232.767 861.338 233.3C861.338 235.367 861.838 237 862.838 238.2C863.905 239.4 865.738 240 868.338 240C869.672 240 871.038 239.867 872.438 239.6C873.905 239.267 875.405 238.867 876.938 238.4ZM921.93 247C920.73 247 919.63 246.8 918.63 246.4C917.696 246 916.863 245.4 916.13 244.6C915.463 243.8 914.963 242.867 914.63 241.8C913.23 242.867 911.696 243.8 910.03 244.6C908.363 245.333 906.596 245.9 904.73 246.3C902.93 246.767 901.096 247 899.23 247C895.963 247 893.163 246.333 890.83 245C888.496 243.6 886.696 241.533 885.43 238.8C884.23 236 883.63 232.633 883.63 228.7C883.63 221.033 884.796 214.433 887.13 208.9C889.53 203.3 892.896 199 897.23 196C901.63 192.933 906.763 191.4 912.63 191.4C914.096 191.4 915.563 191.467 917.03 191.6C918.563 191.733 920.03 191.967 921.43 192.3C922.83 192.567 924.163 192.9 925.43 193.3C926.763 193.633 927.963 194.033 929.03 194.5C927.963 201.1 927.03 206.767 926.23 211.5C925.496 216.167 924.863 220.1 924.33 223.3C923.863 226.433 923.463 228.967 923.13 230.9C922.863 232.767 922.663 234.167 922.53 235.1C922.396 235.967 922.33 236.467 922.33 236.6C922.33 237.8 922.563 238.7 923.03 239.3C923.563 239.833 924.33 240.1 925.33 240.1C925.796 240.1 926.23 240.067 926.63 240C927.096 239.933 927.563 239.833 928.03 239.7L927.83 245.7C927.096 246.1 926.196 246.4 925.13 246.6C924.13 246.867 923.063 247 921.93 247ZM914.33 236.4L920.13 199.4C919.063 198.8 917.796 198.367 916.33 198.1C914.93 197.833 913.396 197.7 911.73 197.7C907.93 197.7 904.496 199 901.43 201.6C898.43 204.133 896.03 207.633 894.23 212.1C892.496 216.5 891.63 221.6 891.63 227.4C891.63 231.533 892.563 234.7 894.43 236.9C896.363 239.1 898.963 240.2 902.23 240.2C903.563 240.2 904.93 240.033 906.33 239.7C907.796 239.367 909.23 238.933 910.63 238.4C912.03 237.8 913.263 237.133 914.33 236.4ZM945.511 172H953.411L944.011 231.6C943.878 232.333 943.744 233.1 943.611 233.9C943.544 234.633 943.511 235.333 943.511 236C943.511 236.667 943.611 237.3 943.811 237.9C944.078 238.5 944.511 239 945.111 239.4C945.778 239.733 946.644 239.9 947.711 239.9C948.511 239.9 949.311 239.833 950.111 239.7C950.978 239.567 951.878 239.367 952.811 239.1L952.711 245.4C951.444 245.867 950.044 246.233 948.511 246.5C946.978 246.833 945.444 247 943.911 247C940.911 247 938.711 246.267 937.311 244.8C935.978 243.267 935.311 241.233 935.311 238.7C935.311 237.967 935.344 237.2 935.411 236.4C935.478 235.533 935.578 234.767 935.711 234.1L945.511 172Z" fill="#BF9CFF"/>
</g>
<defs>
<clipPath id="clip0_72_13">
<rect width="957" height="246" fill="white"/>
</clipPath>
</defs>
</svg>
