<?xml version="1.0" encoding="UTF-8"?>
<svg id="Camada_2" data-name="Camada 2" xmlns="http://www.w3.org/2000/svg" viewBox="0 0 158.27 60.69">
  <defs>
    <style>
      .cls-1 {
        font-size: 39.87px;
      }

      .cls-1, .cls-2 {
        font-family: Georama-Bold, Georama;
        font-weight: 700;
      }

      .cls-1, .cls-2, .cls-3 {
        fill: #fff;
      }

      .cls-2 {
        font-size: 10.12px;
      }

      .cls-4 {
        letter-spacing: 0em;
      }

      .cls-5 {
        letter-spacing: .02em;
      }

      .cls-6 {
        letter-spacing: .02em;
      }

      .cls-7 {
        letter-spacing: .02em;
      }

      .cls-8 {
        letter-spacing: .02em;
      }

      .cls-9 {
        letter-spacing: .02em;
      }

      .cls-10 {
        letter-spacing: .01em;
      }

      .cls-11 {
        letter-spacing: .01em;
      }
    </style>
  </defs>
  <g id="Camada_1-2" data-name="Camada 1">
    <g>
      <g>
        <text class="cls-1" transform="translate(58.65 38.39)"><tspan class="cls-10" x="0" y="0">R</tspan><tspan class="cls-7" x="28.27" y="0">e</tspan><tspan class="cls-5" x="51.43" y="0">de</tspan></text>
        <g>
          <path class="cls-3" d="M24.59,0C11.01,0,0,11.01,0,24.59s11.01,24.59,24.59,24.59,24.59-11.01,24.59-24.59S38.16,0,24.59,0ZM33.71,36.45c-2.76,1.41-5.75,2.13-8.88,2.13h-.49c-3.13,0-6.12-.72-8.88-2.13-3.3-1.69-5.26-5.2-4.99-8.92l.99-13.59c.01-.2.18-.35.38-.35h4.22c.1,0,.2.04.27.12.07.08.11.18.1.28l-1.01,13.9c-.13,1.74.78,3.37,2.31,4.15,2.06,1.05,4.28,1.58,6.62,1.58h.49c2.34,0,4.56-.53,6.62-1.58,1.53-.78,2.43-2.41,2.3-4.15l-1.01-13.9c0-.1.03-.21.1-.28.07-.08.17-.12.27-.12h4.22c.2,0,.36.15.38.35l.99,13.59c.27,3.73-1.69,7.23-4.99,8.92Z"/>
          <g>
            <path class="cls-3" d="M49.01,8.44c-1.78,0-3.23-1.45-3.23-3.23s1.45-3.23,3.23-3.23,3.23,1.45,3.23,3.23-1.45,3.23-3.23,3.23ZM49.01,2.3c-1.61,0-2.91,1.31-2.91,2.91s1.31,2.91,2.91,2.91,2.91-1.31,2.91-2.91-1.31-2.91-2.91-2.91Z"/>
            <path class="cls-3" d="M50.26,6.73c-.08,0-.16-.01-.24-.04-.08-.03-.16-.07-.24-.13-.08-.06-.16-.14-.25-.23-.09-.09-.18-.2-.27-.33-.1-.13-.2-.28-.3-.45-.03,0-.06,0-.11,0h-.32c-.08,0-.15,0-.23,0v1.15h-.5v-3.09c.14,0,.28-.02.4-.02.12,0,.23-.01.34-.01.1,0,.21,0,.31,0,.23,0,.43.02.59.05.16.03.3.09.4.16.1.07.18.17.23.29.05.12.07.26.07.43,0,.18-.03.33-.08.46-.05.12-.13.23-.24.3-.1.08-.23.14-.37.18.1.14.19.27.27.37.08.1.16.19.23.26.07.07.14.12.2.15.06.03.12.05.17.05,0,0,.02,0,.03,0,.01,0,.03,0,.04,0v.48s-.03,0-.05,0-.05,0-.07,0ZM48.84,5.13c.13,0,.25-.01.35-.03.1-.02.18-.05.24-.1.06-.05.11-.11.14-.18.03-.07.05-.17.05-.28,0-.14-.02-.26-.07-.35-.05-.09-.12-.15-.24-.19-.11-.04-.26-.06-.46-.06h-.15s-.08,0-.12,0-.08,0-.13,0c-.05,0-.1,0-.16.01v1.14c.05,0,.1,0,.15,0,.04,0,.09,0,.13,0,.04,0,.09,0,.13,0h.13Z"/>
          </g>
        </g>
      </g>
      <text class="cls-2" transform="translate(60.7 57.35)"><tspan class="cls-9" x="0" y="0">S</tspan><tspan class="cls-6" x="6.48" y="0">uprimen</tspan><tspan class="cls-11" x="47.23" y="0">t</tspan><tspan class="cls-6" x="51.51" y="0">o de </tspan><tspan class="cls-4" x="75.62" y="0">r</tspan><tspan class="cls-8" x="79.85" y="0">e</tspan><tspan class="cls-6" x="85.73" y="0">de</tspan></text>
    </g>
  </g>
</svg>