<?xml version="1.0" encoding="UTF-8"?>
<svg id="Camada_2" data-name="Camada 2" xmlns="http://www.w3.org/2000/svg" viewBox="0 0 157.99 59.47">
  <defs>
    <style>
      .cls-1 {
        fill: #fff;
      }
    </style>
  </defs>
  <g id="Camada_1-2" data-name="Camada 1">
    <g>
      <g>
        <g>
          <path class="cls-1" d="M84.12,38.79c-.82,0-1.65-.11-2.47-.34-.82-.23-1.64-.58-2.45-1.06-.81-.48-1.64-1.1-2.49-1.85-.85-.76-1.72-1.67-2.61-2.73-.89-1.06-1.81-2.3-2.77-3.71-.16.03-.38.04-.66.04h-1.85c-.43,0-.82-.01-1.2-.04v9.29h-6.78V10.48c1.57-.11,3.01-.19,4.33-.24,1.32-.05,2.52-.09,3.63-.12,1.1-.03,2.12-.04,3.05-.04,2.21,0,4.09.17,5.64.5,1.56.33,2.83.84,3.83,1.53,1,.69,1.72,1.59,2.17,2.69.45,1.1.68,2.43.68,3.97s-.24,2.92-.72,4.05c-.48,1.13-1.16,2.05-2.05,2.77-.89.72-1.93,1.28-3.13,1.67.69.85,1.35,1.58,1.97,2.19.62.61,1.21,1.13,1.75,1.55.54.43,1.06.74,1.55.94.49.2.96.3,1.42.3.08,0,.19,0,.32-.02.13-.01.24-.02.32-.02l.04,6.46c-.19.03-.4.05-.64.08s-.53.04-.88.04ZM71.76,24.2c.93,0,1.74-.08,2.43-.24.69-.16,1.26-.42,1.69-.78.44-.36.77-.82,1-1.4.23-.57.34-1.28.34-2.13,0-1.04-.16-1.87-.48-2.49-.32-.62-.86-1.08-1.61-1.38-.76-.29-1.8-.44-3.13-.44h-1.1c-.31,0-.61,0-.92.02-.31.01-.64.03-1.02.06-.37.03-.82.05-1.36.08v8.57c.4.03.76.05,1.08.06.32.01.64.03.96.04.32.01.64.02.98.02h1.14Z"/>
          <path class="cls-1" d="M98.6,38.79c-1.7,0-3.2-.21-4.5-.62-1.3-.41-2.41-1.05-3.33-1.91-.92-.86-1.61-1.98-2.09-3.35-.48-1.37-.72-3-.72-4.88,0-2.15.27-3.97.82-5.46.54-1.49,1.3-2.7,2.27-3.63.97-.93,2.12-1.6,3.45-2.01,1.33-.41,2.78-.62,4.35-.62,3.19,0,5.54.78,7.04,2.35,1.5,1.57,2.25,4.12,2.25,7.66,0,.27,0,.6-.02,1.02-.01.41-.03.82-.06,1.22-.66.05-1.48.12-2.43.2-.96.08-2.02.16-3.19.24-1.17.08-2.41.15-3.71.2-1.3.05-2.63.09-3.99.12-.03.08-.04.16-.04.24v.28c0,.88.18,1.6.54,2.17.36.57.91,1,1.65,1.28s1.71.42,2.91.42c.74,0,1.53-.04,2.35-.12s1.66-.19,2.51-.34c.85-.15,1.7-.31,2.55-.5l.76,4.7c-.93.29-1.89.54-2.87.76-.98.21-2.01.37-3.07.46s-2.21.14-3.43.14ZM94.77,25.43c.69,0,1.38-.01,2.07-.04.69-.03,1.34-.06,1.95-.1.61-.04,1.16-.07,1.63-.1.48-.03.88-.04,1.2-.04-.03-1.06-.16-1.91-.4-2.53-.24-.62-.58-1.07-1.04-1.34-.45-.26-1.02-.4-1.71-.4-.48,0-.92.07-1.32.2-.4.13-.76.37-1.1.7-.33.33-.61.8-.84,1.4-.23.6-.38,1.35-.46,2.25Z"/>
          <path class="cls-1" d="M125.83,38.43l-.76-1.63c-1.06.67-2.13,1.16-3.19,1.5-1.06.33-2.18.5-3.35.5-2.37,0-4.19-.93-5.48-2.79-1.29-1.86-1.93-4.54-1.93-8.05,0-2.63.38-4.8,1.14-6.52.76-1.71,1.91-3,3.45-3.85,1.54-.85,3.49-1.28,5.86-1.28.53,0,1.1.02,1.69.06.6.04,1.18.11,1.73.22v-7.7h6.58v29.54h-5.74ZM124.99,32.25v-10.76c-.53-.16-1.04-.27-1.53-.34-.49-.07-.98-.1-1.46-.1-.93,0-1.7.2-2.31.6s-1.06,1.05-1.36,1.95c-.29.9-.44,2.14-.44,3.71,0,1.44.13,2.6.38,3.49.25.89.62,1.54,1.1,1.95s1.06.62,1.75.62c.4,0,.8-.04,1.22-.12.41-.08.84-.21,1.28-.38s.9-.38,1.38-.62Z"/>
          <path class="cls-1" d="M146.08,38.79c-1.7,0-3.2-.21-4.5-.62-1.3-.41-2.41-1.05-3.33-1.91-.92-.86-1.61-1.98-2.09-3.35-.48-1.37-.72-3-.72-4.88,0-2.15.27-3.97.82-5.46.54-1.49,1.3-2.7,2.27-3.63.97-.93,2.12-1.6,3.45-2.01,1.33-.41,2.78-.62,4.35-.62,3.19,0,5.54.78,7.04,2.35,1.5,1.57,2.25,4.12,2.25,7.66,0,.27,0,.6-.02,1.02-.01.41-.03.82-.06,1.22-.66.05-1.48.12-2.43.2-.96.08-2.02.16-3.19.24-1.17.08-2.41.15-3.71.2-1.3.05-2.63.09-3.99.12-.03.08-.04.16-.04.24v.28c0,.88.18,1.6.54,2.17.36.57.91,1,1.65,1.28s1.71.42,2.91.42c.74,0,1.53-.04,2.35-.12s1.66-.19,2.51-.34c.85-.15,1.7-.31,2.55-.5l.76,4.7c-.93.29-1.89.54-2.87.76-.98.21-2.01.37-3.07.46s-2.21.14-3.43.14ZM142.25,25.43c.69,0,1.38-.01,2.07-.04.69-.03,1.34-.06,1.95-.1.61-.04,1.16-.07,1.63-.1.48-.03.88-.04,1.2-.04-.03-1.06-.16-1.91-.4-2.53-.24-.62-.58-1.07-1.04-1.34-.45-.26-1.02-.4-1.71-.4-.48,0-.92.07-1.32.2-.4.13-.76.37-1.1.7-.33.33-.61.8-.84,1.4-.23.6-.38,1.35-.46,2.25Z"/>
        </g>
        <g>
          <path class="cls-1" d="M24.59,0C11.01,0,0,11.01,0,24.59s11.01,24.59,24.59,24.59,24.59-11.01,24.59-24.59S38.16,0,24.59,0ZM33.71,36.45c-2.76,1.41-5.75,2.13-8.88,2.13h-.49c-3.13,0-6.12-.72-8.88-2.13-3.3-1.69-5.26-5.2-4.99-8.92l.99-13.59c.01-.2.18-.35.38-.35h4.22c.1,0,.2.04.27.12.07.08.11.18.1.28l-1.01,13.9c-.13,1.74.78,3.37,2.31,4.15,2.06,1.05,4.28,1.58,6.62,1.58h.49c2.34,0,4.56-.53,6.62-1.58,1.53-.78,2.43-2.41,2.3-4.15l-1.01-13.9c0-.1.03-.21.1-.28.07-.08.17-.12.27-.12h4.22c.2,0,.36.15.38.35l.99,13.59c.27,3.73-1.69,7.23-4.99,8.92Z"/>
          <g>
            <path class="cls-1" d="M49.01,8.44c-1.78,0-3.23-1.45-3.23-3.23s1.45-3.23,3.23-3.23,3.23,1.45,3.23,3.23-1.45,3.23-3.23,3.23ZM49.01,2.3c-1.61,0-2.91,1.31-2.91,2.91s1.31,2.91,2.91,2.91,2.91-1.31,2.91-2.91-1.31-2.91-2.91-2.91Z"/>
            <path class="cls-1" d="M50.26,6.73c-.08,0-.16-.01-.24-.04-.08-.03-.16-.07-.24-.13-.08-.06-.16-.14-.25-.23-.09-.09-.18-.2-.27-.33-.1-.13-.2-.28-.3-.45-.03,0-.06,0-.11,0h-.32c-.08,0-.15,0-.23,0v1.15h-.5v-3.09c.14,0,.28-.02.4-.02.12,0,.23-.01.34-.01.1,0,.21,0,.31,0,.23,0,.43.02.59.05.16.03.3.09.4.16.1.07.18.17.23.29.05.12.07.26.07.43,0,.18-.03.33-.08.46-.05.12-.13.23-.24.3-.1.08-.23.14-.37.18.1.14.19.27.27.37.08.1.16.19.23.26.07.07.14.12.2.15.06.03.12.05.17.05,0,0,.02,0,.03,0,.01,0,.03,0,.04,0v.48s-.03,0-.05,0-.05,0-.07,0ZM48.84,5.13c.13,0,.25-.01.35-.03.1-.02.18-.05.24-.1.06-.05.11-.11.14-.18.03-.07.05-.17.05-.28,0-.14-.02-.26-.07-.35-.05-.09-.12-.15-.24-.19-.11-.04-.26-.06-.46-.06h-.15s-.08,0-.12,0-.08,0-.13,0c-.05,0-.1,0-.16.01v1.14c.05,0,.1,0,.15,0,.04,0,.09,0,.13,0,.04,0,.09,0,.13,0h.13Z"/>
          </g>
        </g>
      </g>
      <g>
        <path class="cls-1" d="M66.47,50.51l-.32,1.32c-.13-.05-.29-.09-.47-.13-.18-.04-.36-.07-.55-.1-.19-.03-.38-.05-.57-.06s-.37-.02-.55-.02c-.4,0-.7.05-.91.16-.21.11-.31.28-.31.51,0,.12.03.23.1.32.07.09.18.17.32.25s.34.15.58.22c.24.07.52.16.85.24.36.09.67.19.94.32.27.12.49.27.67.44s.31.36.4.58c.09.22.14.47.14.76,0,.46-.12.85-.36,1.16-.24.32-.6.56-1.07.72-.47.17-1.05.25-1.74.25-.23,0-.47-.01-.71-.03-.24-.02-.49-.05-.73-.09-.25-.04-.48-.08-.71-.14-.23-.06-.45-.12-.65-.2l.32-1.31c.2.07.41.13.63.18.22.05.44.1.66.14s.44.07.66.09c.22.02.43.03.62.03.3,0,.55-.03.74-.08s.33-.13.43-.23c.09-.1.14-.23.14-.38,0-.13-.05-.24-.14-.32-.09-.09-.23-.17-.41-.25-.18-.08-.41-.16-.68-.24-.27-.08-.59-.18-.95-.28-.3-.1-.57-.22-.79-.34-.23-.13-.42-.27-.57-.44-.16-.17-.27-.36-.35-.57s-.12-.46-.12-.73c0-.3.06-.58.18-.84.12-.26.3-.48.54-.67.24-.19.55-.34.94-.44s.84-.16,1.37-.16c.31,0,.62.02.93.05.31.03.59.08.86.13s.49.11.67.17Z"/>
        <path class="cls-1" d="M69.26,57.45c-.32,0-.61-.06-.85-.18-.24-.12-.43-.3-.57-.55-.14-.25-.21-.56-.21-.93v-3.95h1.66v3.55c0,.23.06.4.17.51s.27.17.48.17c.11,0,.21,0,.31-.03.1-.02.2-.05.29-.09.1-.04.2-.09.32-.14v-3.97h1.66v3.8c0,.1.01.18.03.24.02.06.05.1.09.13.04.03.09.04.14.04.07,0,.15-.02.21-.05l.14,1.19c-.09.05-.19.09-.29.13-.11.04-.23.07-.36.1-.13.02-.27.04-.4.04-.25,0-.46-.05-.62-.15-.17-.1-.3-.23-.4-.41-.2.11-.39.21-.58.3-.19.08-.38.15-.58.19s-.41.07-.64.07Z"/>
        <path class="cls-1" d="M73.88,59.47v-7.65h1.5l.05.47c.3-.19.6-.33.88-.42.28-.09.57-.13.87-.13.61,0,1.07.24,1.4.71s.49,1.15.49,2.04c0,.66-.1,1.21-.29,1.65-.19.44-.48.77-.88.98-.39.22-.89.32-1.49.32-.13,0-.27,0-.42-.02s-.3-.03-.46-.06v2.11h-1.66ZM76.3,56.24c.24,0,.43-.05.59-.15.16-.1.27-.27.34-.5.07-.23.11-.54.11-.94s-.03-.68-.09-.9c-.06-.22-.15-.39-.27-.49-.12-.1-.27-.16-.46-.16-.1,0-.2,0-.31.03s-.21.05-.32.09c-.11.04-.23.09-.35.16v2.73c.13.04.27.07.39.09.13.02.25.03.36.03Z"/>
        <path class="cls-1" d="M81.54,51.84v.64c.19-.17.36-.32.52-.42.16-.11.31-.19.48-.24.16-.05.34-.08.54-.08.11,0,.22,0,.34.03.12.02.24.05.36.09l-.26,1.5c-.12-.03-.24-.05-.36-.07-.12-.02-.23-.03-.33-.03-.18,0-.35.03-.54.09-.18.06-.38.16-.59.31v3.69h-1.65v-5.51h1.5Z"/>
        <path class="cls-1" d="M85.37,51.25c-.34,0-.59-.07-.74-.2-.16-.14-.24-.34-.24-.63s.08-.49.24-.63c.16-.13.41-.2.74-.2s.58.07.74.2c.16.14.23.34.23.63s-.08.49-.23.63c-.15.13-.4.2-.74.2ZM84.54,57.35v-5.51h1.65v5.51h-1.65Z"/>
        <path class="cls-1" d="M87.37,57.35v-5.51h1.5v.48c.2-.13.4-.24.59-.32s.38-.14.56-.18.37-.06.56-.06c.22,0,.4.02.56.07.15.05.29.12.4.21s.21.2.28.34c.23-.14.44-.26.64-.35.2-.09.4-.16.6-.21.2-.05.41-.07.63-.07.2,0,.38.03.54.08.16.05.3.12.42.22.12.09.22.21.3.33s.14.27.18.44.06.33.06.52v4.03h-1.66v-3.48c0-.1-.01-.2-.03-.29s-.05-.17-.1-.23c-.04-.06-.1-.11-.18-.15-.08-.03-.17-.05-.29-.05-.1,0-.2.01-.3.04-.1.02-.19.05-.28.09s-.18.08-.27.13c.01.05.02.11.02.17,0,.06,0,.11,0,.17v3.61h-1.66v-3.48c0-.09-.01-.19-.03-.28-.02-.09-.05-.17-.1-.23-.05-.06-.11-.12-.19-.15s-.17-.06-.29-.06c-.09,0-.18.01-.27.04-.09.02-.18.05-.27.09-.09.04-.18.08-.27.13v3.95h-1.66Z"/>
        <path class="cls-1" d="M98.86,57.45c-.43,0-.81-.05-1.14-.16-.33-.1-.61-.27-.85-.49-.23-.22-.41-.5-.53-.85s-.18-.76-.18-1.24c0-.55.07-1.01.21-1.39s.33-.68.58-.92c.25-.24.54-.41.88-.51s.71-.16,1.1-.16c.81,0,1.41.2,1.79.6.38.4.57,1.05.57,1.94,0,.07,0,.15,0,.26,0,.1,0,.21-.02.31-.17.01-.38.03-.62.05-.24.02-.51.04-.81.06-.3.02-.61.04-.94.05-.33.01-.67.02-1.01.03,0,.02,0,.04,0,.06v.07c0,.22.05.41.14.55.09.15.23.25.42.32s.44.11.74.11c.19,0,.39-.01.6-.03.21-.02.42-.05.64-.09.22-.04.43-.08.65-.13l.19,1.19c-.24.07-.48.14-.73.19-.25.05-.51.09-.78.12-.27.02-.56.04-.87.04ZM97.89,54.06c.18,0,.35,0,.53,0s.34-.02.5-.03.29-.02.42-.03.22,0,.3,0c0-.27-.04-.48-.1-.64-.06-.16-.15-.27-.26-.34s-.26-.1-.44-.1c-.12,0-.23.02-.33.05-.1.03-.19.09-.28.18-.08.08-.16.2-.21.35-.06.15-.1.34-.12.57Z"/>
        <path class="cls-1" d="M102.28,57.35v-5.51h1.5v.48c.22-.13.43-.24.63-.33.2-.08.39-.15.59-.19.19-.04.4-.06.61-.06.36,0,.66.07.9.2.24.13.42.31.54.55.12.23.18.51.18.83v4.03h-1.66v-3.48c0-.26-.06-.44-.17-.56s-.28-.18-.49-.18c-.11,0-.21.01-.32.04s-.21.06-.31.1c-.1.04-.21.09-.33.14v3.95h-1.66Z"/>
        <path class="cls-1" d="M110.45,57.45c-.36,0-.67-.07-.92-.21-.25-.14-.44-.35-.56-.65-.12-.29-.19-.68-.19-1.15v-2.4h-.79v-1.1l.79-.1.19-1.17h1.46v1.17h1.39v1.21h-1.39v2.27c0,.27.05.46.15.57s.25.17.46.17c.11,0,.24-.01.36-.04.13-.02.27-.05.42-.09l.22,1.25c-.28.09-.56.16-.82.2-.26.04-.52.06-.77.06Z"/>
        <path class="cls-1" d="M112.48,54.58c0-.45.04-.84.13-1.19.09-.35.23-.65.44-.9s.48-.43.82-.56c.34-.13.77-.19,1.29-.19s.94.06,1.29.19c.34.13.62.32.82.56.2.25.35.54.44.9.09.35.13.75.13,1.19s-.05.86-.14,1.21c-.09.36-.25.66-.46.9-.21.24-.48.43-.83.56s-.76.19-1.25.19-.91-.06-1.25-.19c-.34-.13-.62-.31-.83-.56-.21-.24-.36-.54-.46-.9-.09-.36-.14-.76-.14-1.21ZM114.19,54.58c0,.41.03.73.1.96.06.24.17.4.31.5s.33.15.56.15.42-.05.56-.15c.14-.1.24-.26.31-.5s.1-.56.1-.96-.03-.72-.09-.95c-.06-.23-.16-.39-.3-.49-.14-.1-.33-.15-.58-.15s-.43.05-.57.15c-.14.1-.24.26-.3.49-.06.23-.09.55-.09.95Z"/>
        <path class="cls-1" d="M125.28,57.36l-.19-.42c-.27.17-.54.3-.81.38s-.55.13-.85.13c-.6,0-1.06-.24-1.39-.71-.33-.47-.49-1.15-.49-2.04,0-.67.1-1.22.29-1.66.19-.43.48-.76.88-.98.39-.22.89-.32,1.49-.32.13,0,.28,0,.43.02s.3.03.44.06v-1.95h1.67v7.5h-1.46ZM125.07,55.79v-2.73c-.13-.04-.26-.07-.39-.09s-.25-.03-.37-.03c-.24,0-.43.05-.59.15-.16.1-.27.27-.34.5-.07.23-.11.54-.11.94,0,.37.03.66.1.89.06.23.16.39.28.5.12.1.27.16.45.16.1,0,.2,0,.31-.03.1-.02.21-.05.32-.1.11-.04.23-.1.35-.16Z"/>
        <path class="cls-1" d="M130.42,57.45c-.43,0-.81-.05-1.14-.16-.33-.1-.61-.27-.85-.49-.23-.22-.41-.5-.53-.85s-.18-.76-.18-1.24c0-.55.07-1.01.21-1.39s.33-.68.58-.92c.25-.24.54-.41.88-.51s.71-.16,1.1-.16c.81,0,1.41.2,1.79.6.38.4.57,1.05.57,1.94,0,.07,0,.15,0,.26,0,.1,0,.21-.02.31-.17.01-.38.03-.62.05-.24.02-.51.04-.81.06-.3.02-.61.04-.94.05-.33.01-.67.02-1.01.03,0,.02,0,.04,0,.06v.07c0,.22.05.41.14.55.09.15.23.25.42.32s.44.11.74.11c.19,0,.39-.01.6-.03.21-.02.42-.05.64-.09.22-.04.43-.08.65-.13l.19,1.19c-.24.07-.48.14-.73.19-.25.05-.51.09-.78.12-.27.02-.56.04-.87.04ZM129.45,54.06c.18,0,.35,0,.53,0s.34-.02.5-.03.29-.02.42-.03.22,0,.3,0c0-.27-.04-.48-.1-.64-.06-.16-.15-.27-.26-.34s-.26-.1-.44-.1c-.12,0-.23.02-.33.05-.1.03-.19.09-.28.18-.08.08-.16.2-.21.35-.06.15-.1.34-.12.57Z"/>
        <path class="cls-1" d="M138.29,51.84v.64c.19-.17.36-.32.52-.42.16-.11.31-.19.48-.24.16-.05.34-.08.54-.08.11,0,.22,0,.34.03.12.02.24.05.36.09l-.26,1.5c-.12-.03-.24-.05-.36-.07-.12-.02-.23-.03-.33-.03-.18,0-.35.03-.54.09-.18.06-.38.16-.59.31v3.69h-1.65v-5.51h1.5Z"/>
        <path class="cls-1" d="M143.51,57.45c-.43,0-.81-.05-1.14-.16-.33-.1-.61-.27-.85-.49-.23-.22-.41-.5-.53-.85s-.18-.76-.18-1.24c0-.55.07-1.01.21-1.39s.33-.68.58-.92c.25-.24.54-.41.88-.51s.71-.16,1.1-.16c.81,0,1.41.2,1.79.6.38.4.57,1.05.57,1.94,0,.07,0,.15,0,.26,0,.1,0,.21-.02.31-.17.01-.38.03-.62.05-.24.02-.51.04-.81.06-.3.02-.61.04-.94.05-.33.01-.67.02-1.01.03,0,.02,0,.04,0,.06v.07c0,.22.05.41.14.55.09.15.23.25.42.32s.44.11.74.11c.19,0,.39-.01.6-.03.21-.02.42-.05.64-.09.22-.04.43-.08.65-.13l.19,1.19c-.24.07-.48.14-.73.19-.25.05-.51.09-.78.12-.27.02-.56.04-.87.04ZM142.54,54.06c.18,0,.35,0,.53,0s.34-.02.5-.03.29-.02.42-.03.22,0,.3,0c0-.27-.04-.48-.1-.64-.06-.16-.15-.27-.26-.34s-.26-.1-.44-.1c-.12,0-.23.02-.33.05-.1.03-.19.09-.28.18-.08.08-.16.2-.21.35-.06.15-.1.34-.12.57Z"/>
        <path class="cls-1" d="M150.43,57.36l-.19-.42c-.27.17-.54.3-.81.38s-.55.13-.85.13c-.6,0-1.06-.24-1.39-.71-.33-.47-.49-1.15-.49-2.04,0-.67.1-1.22.29-1.66.19-.43.48-.76.88-.98.39-.22.89-.32,1.49-.32.13,0,.28,0,.43.02s.3.03.44.06v-1.95h1.67v7.5h-1.46ZM150.21,55.79v-2.73c-.13-.04-.26-.07-.39-.09s-.25-.03-.37-.03c-.24,0-.43.05-.59.15-.16.1-.27.27-.34.5-.07.23-.11.54-.11.94,0,.37.03.66.1.89.06.23.16.39.28.5.12.1.27.16.45.16.1,0,.2,0,.31-.03.1-.02.21-.05.32-.1.11-.04.23-.1.35-.16Z"/>
        <path class="cls-1" d="M155.57,57.45c-.43,0-.81-.05-1.14-.16-.33-.1-.61-.27-.85-.49-.23-.22-.41-.5-.53-.85s-.18-.76-.18-1.24c0-.55.07-1.01.21-1.39s.33-.68.58-.92c.25-.24.54-.41.88-.51s.71-.16,1.1-.16c.81,0,1.41.2,1.79.6.38.4.57,1.05.57,1.94,0,.07,0,.15,0,.26,0,.1,0,.21-.02.31-.17.01-.38.03-.62.05-.24.02-.51.04-.81.06-.3.02-.61.04-.94.05-.33.01-.67.02-1.01.03,0,.02,0,.04,0,.06v.07c0,.22.05.41.14.55.09.15.23.25.42.32s.44.11.74.11c.19,0,.39-.01.6-.03.21-.02.42-.05.64-.09.22-.04.43-.08.65-.13l.19,1.19c-.24.07-.48.14-.73.19-.25.05-.51.09-.78.12-.27.02-.56.04-.87.04ZM154.6,54.06c.18,0,.35,0,.53,0s.34-.02.5-.03.29-.02.42-.03.22,0,.3,0c0-.27-.04-.48-.1-.64-.06-.16-.15-.27-.26-.34s-.26-.1-.44-.1c-.12,0-.23.02-.33.05-.1.03-.19.09-.28.18-.08.08-.16.2-.21.35-.06.15-.1.34-.12.57Z"/>
      </g>
    </g>
  </g>
</svg>