<svg width="200" height="137" viewBox="0 0 200 137" fill="none" xmlns="http://www.w3.org/2000/svg">
<rect width="200" height="136.423" rx="8.56431" transform="matrix(-1 0 0 1 200 0)" fill="white"/>
<circle cx="100" cy="35.5" r="23.5" fill="#F2F5F8"/>
<path d="M106.987 38.1779C109.247 39.2081 111.251 40.7105 112.855 42.5776C113.729 43.594 113.709 45.0964 112.831 46.1094C109.703 49.7201 105.11 52 100.01 52C94.8545 52 90.2194 49.6698 87.0884 45.9916C86.2582 45.0152 86.3279 43.5529 87.1627 42.581C88.7377 40.7471 90.6964 39.263 92.907 38.234C94.7195 40.7779 97.1956 42.3535 99.9249 42.3535C102.676 42.3535 105.17 40.7562 106.987 38.1779ZM99.9253 20C104.226 20 107.726 23.5558 107.726 27.9281C107.726 31.7377 106.59 35.1392 104.82 37.3653C103.48 39.0518 101.778 40.066 99.9253 40.066C98.087 40.066 96.3983 39.0655 95.0641 37.4042C93.2753 35.1781 92.1244 31.7606 92.1244 27.9281C92.1244 23.5558 95.6243 20 99.9253 20Z" fill="#CBD6E2"/>
<rect x="70.3701" y="67" width="59.2593" height="3.71133" rx="1.85567" fill="#CBD6E2"/>
<rect x="70.3701" y="76.7113" width="42.2593" height="3.71133" rx="1.85567" fill="#CBD6E2"/>
<rect width="50" height="13" rx="6.5" transform="matrix(-1 0 0 1 169.5 92.4227)" fill="#CBD6E2"/>
<path fill-rule="evenodd" clip-rule="evenodd" d="M138.265 95.3826C138.716 95.2067 139.218 95.3242 139.552 95.6907L144.213 101.126C144.351 101.277 144.577 101.295 144.684 101.219L146.976 98.6581C147.227 98.4628 147.538 98.3818 147.855 98.427C148.17 98.4736 148.446 98.6417 148.613 98.8768L151.228 101.976C151.504 102.331 151.553 102.803 151.356 103.207C151.16 103.611 150.759 103.862 150.311 103.862H138.687C138.046 103.862 137.524 103.338 137.524 102.695V96.4705C137.524 95.9849 137.815 95.5584 138.265 95.3826Z" fill="white"/>
<path fill-rule="evenodd" clip-rule="evenodd" d="M147.53 96.5711C146.814 96.5711 146.234 95.9921 146.234 95.2772C146.234 94.5623 146.814 93.9833 147.53 93.9833C148.245 93.9833 148.825 94.5623 148.825 95.2772C148.825 95.9921 148.245 96.5711 147.53 96.5711Z" fill="white"/>
<ellipse cx="128.72" cy="118.923" rx="5.48868" ry="5.5" fill="#CBD6E2"/>
<ellipse cx="144.729" cy="118.923" rx="5.48869" ry="5.5" fill="#CBD6E2"/>
<ellipse cx="160.281" cy="118.923" rx="5.48869" ry="5.5" fill="#CBD6E2"/>
<rect x="24" y="100.423" width="81" height="4" rx="2" fill="#CBD6E2"/>
<rect x="24" y="110.423" width="81" height="4" rx="2" fill="#CBD6E2"/>
<rect x="24" y="120.423" width="81" height="4" rx="2" fill="#CBD6E2"/>
</svg>
