<svg width="200" height="111" viewBox="0 0 200 111" fill="none" xmlns="http://www.w3.org/2000/svg">
<rect width="200" height="111" rx="8.56431" transform="matrix(-1 0 0 1 200 0)" fill="white"/>
<circle cx="47.5" cy="35.5" r="23.5" fill="#F2F5F8"/>
<path d="M54.4867 38.1779C56.7469 39.2081 58.7506 40.7105 60.3548 42.5776C61.229 43.594 61.2087 45.0964 60.3312 46.1094C57.2025 49.7201 52.6102 52 47.5104 52C42.3545 52 37.7194 49.6698 34.5884 45.9916C33.7582 45.0152 33.8279 43.5529 34.6627 42.581C36.2377 40.7471 38.1964 39.263 40.407 38.234C42.2195 40.7779 44.6956 42.3535 47.4249 42.3535C50.1756 42.3535 52.6698 40.7562 54.4867 38.1779ZM47.4253 20C51.7262 20 55.2262 23.5558 55.2262 27.9281C55.2262 31.7377 54.0899 35.1392 52.3203 37.3653C50.9804 39.0518 49.2782 40.066 47.4253 40.066C45.587 40.066 43.8983 39.0655 42.5641 37.4042C40.7753 35.1781 39.6244 31.7606 39.6244 27.9281C39.6244 23.5558 43.1243 20 47.4253 20Z" fill="#CBD6E2"/>
<rect x="79" y="28.7886" width="59.2593" height="3.71133" rx="1.85567" fill="#CBD6E2"/>
<rect x="79" y="38.5" width="42.2593" height="3.71133" rx="1.85567" fill="#CBD6E2"/>
<rect width="50" height="13" rx="6.5" transform="matrix(-1 0 0 1 169.5 67)" fill="#CBD6E2"/>
<path fill-rule="evenodd" clip-rule="evenodd" d="M138.265 69.96C138.716 69.7841 139.218 69.9016 139.552 70.2681L144.213 75.7032C144.351 75.8542 144.577 75.8729 144.684 75.7966L146.976 73.2355C147.227 73.0401 147.538 72.9592 147.855 73.0043C148.17 73.051 148.446 73.2191 148.613 73.4542L151.228 76.5538C151.504 76.9087 151.553 77.3803 151.356 77.7842C151.16 78.1881 150.759 78.4394 150.311 78.4394H138.687C138.046 78.4394 137.524 77.9157 137.524 77.2721V71.0479C137.524 70.5623 137.815 70.1358 138.265 69.96Z" fill="white"/>
<path fill-rule="evenodd" clip-rule="evenodd" d="M147.53 71.1484C146.814 71.1484 146.234 70.5694 146.234 69.8545C146.234 69.1396 146.814 68.5605 147.53 68.5605C148.245 68.5605 148.825 69.1396 148.825 69.8545C148.825 70.5694 148.245 71.1484 147.53 71.1484Z" fill="white"/>
<ellipse cx="128.72" cy="93.5" rx="5.48868" ry="5.5" fill="#CBD6E2"/>
<ellipse cx="144.729" cy="93.5" rx="5.48869" ry="5.5" fill="#CBD6E2"/>
<ellipse cx="160.281" cy="93.5" rx="5.48869" ry="5.5" fill="#CBD6E2"/>
<rect x="24" y="75" width="81" height="4" rx="2" fill="#CBD6E2"/>
<rect x="24" y="85" width="81" height="4" rx="2" fill="#CBD6E2"/>
<rect x="24" y="95" width="81" height="4" rx="2" fill="#CBD6E2"/>
</svg>
