<svg width="200" height="111" viewBox="0 0 200 111" fill="none" xmlns="http://www.w3.org/2000/svg">
<rect width="200" height="111" rx="8.56431" transform="matrix(-1 0 0 1 200 0)" fill="white"/>
<rect x="95" y="15.2886" width="59.2593" height="3.71133" rx="1.85567" fill="#CBD6E2"/>
<rect x="95" y="25" width="42.2593" height="3.71133" rx="1.85567" fill="#CBD6E2"/>
<rect x="95" y="44.7114" width="81" height="4" rx="2" fill="#CBD6E2"/>
<rect x="95" y="54.7114" width="81" height="4" rx="2" fill="#CBD6E2"/>
<rect x="95" y="64.7114" width="81" height="4" rx="2" fill="#CBD6E2"/>
<ellipse cx="100.489" cy="90.2114" rx="5.48868" ry="5.5" fill="#CBD6E2"/>
<ellipse cx="116.497" cy="90.2114" rx="5.48869" ry="5.5" fill="#CBD6E2"/>
<ellipse cx="132.049" cy="90.2114" rx="5.48869" ry="5.5" fill="#CBD6E2"/>
<circle cx="47.5" cy="35.5" r="23.5" fill="#F2F5F8"/>
<path d="M54.4867 38.1779C56.7469 39.2081 58.7506 40.7105 60.3548 42.5776C61.229 43.594 61.2087 45.0964 60.3312 46.1094C57.2025 49.7201 52.6102 52 47.5104 52C42.3545 52 37.7194 49.6698 34.5884 45.9916C33.7582 45.0152 33.8279 43.5529 34.6627 42.581C36.2377 40.7471 38.1964 39.263 40.407 38.234C42.2195 40.7779 44.6956 42.3535 47.4249 42.3535C50.1756 42.3535 52.6698 40.7562 54.4867 38.1779ZM47.4253 20C51.7262 20 55.2262 23.5558 55.2262 27.9281C55.2262 31.7377 54.0899 35.1392 52.3203 37.3653C50.9804 39.0518 49.2782 40.066 47.4253 40.066C45.587 40.066 43.8983 39.0655 42.5641 37.4042C40.7753 35.1781 39.6244 31.7606 39.6244 27.9281C39.6244 23.5558 43.1243 20 47.4253 20Z" fill="#CBD6E2"/>
<rect width="50" height="13" rx="6.5" transform="matrix(-1 0 0 1 72.5 67)" fill="#CBD6E2"/>
<path fill-rule="evenodd" clip-rule="evenodd" d="M41.2653 69.9597C41.7157 69.7838 42.2179 69.9013 42.552 70.2679L47.2132 75.703C47.3512 75.8539 47.5767 75.8726 47.6837 75.7964L49.9756 73.2352C50.2275 73.0399 50.5383 72.959 50.8553 73.0041C51.17 73.0508 51.4459 73.2189 51.6125 73.4539L54.2284 76.5536C54.5035 76.9084 54.5532 77.38 54.3563 77.7839C54.1602 78.1878 53.7595 78.4392 53.3115 78.4392H41.687C41.046 78.4392 40.5244 77.9154 40.5244 77.2719V71.0477C40.5244 70.562 40.815 70.1356 41.2653 69.9597Z" fill="white"/>
<path fill-rule="evenodd" clip-rule="evenodd" d="M50.5297 71.1484C49.814 71.1484 49.2343 70.5694 49.2343 69.8545C49.2343 69.1396 49.814 68.5605 50.5297 68.5605C51.2455 68.5605 51.8252 69.1396 51.8252 69.8545C51.8252 70.5694 51.2455 71.1484 50.5297 71.1484Z" fill="white"/>
</svg>
