<svg width="200" height="124" viewBox="0 0 200 124" fill="none" xmlns="http://www.w3.org/2000/svg">
<rect width="200" height="124" rx="8.56431" transform="matrix(-1 0 0 1 200 0)" fill="white"/>
<rect x="24" y="28.7887" width="59.2593" height="3.71133" rx="1.85567" fill="#CBD6E2"/>
<rect x="24" y="38.5" width="42.2593" height="3.71133" rx="1.85567" fill="#CBD6E2"/>
<circle cx="152.5" cy="35.5" r="23.5" fill="#F2F5F8"/>
<path d="M159.487 38.1779C161.747 39.2081 163.751 40.7105 165.355 42.5776C166.229 43.594 166.209 45.0964 165.331 46.1094C162.203 49.7201 157.61 52 152.51 52C147.354 52 142.719 49.6698 139.588 45.9916C138.758 45.0152 138.828 43.5529 139.663 42.581C141.238 40.7471 143.196 39.263 145.407 38.234C147.219 40.7779 149.696 42.3535 152.425 42.3535C155.176 42.3535 157.67 40.7562 159.487 38.1779ZM152.425 20C156.726 20 160.226 23.5558 160.226 27.9281C160.226 31.7377 159.09 35.1392 157.32 37.3653C155.98 39.0518 154.278 40.066 152.425 40.066C150.587 40.066 148.898 39.0655 147.564 37.4042C145.775 35.1781 144.624 31.7606 144.624 27.9281C144.624 23.5558 148.124 20 152.425 20Z" fill="#CBD6E2"/>
<rect x="24" y="67" width="103" height="4" rx="2" fill="#CBD6E2"/>
<rect x="24" y="77" width="103" height="4" rx="2" fill="#CBD6E2"/>
<rect x="24" y="87" width="103" height="4" rx="2" fill="#CBD6E2"/>
<rect width="50" height="13" rx="6.5" transform="matrix(-1 0 0 1 74 99)" fill="#CBD6E2"/>
<path fill-rule="evenodd" clip-rule="evenodd" d="M42.7653 101.96C43.2157 101.784 43.7179 101.901 44.052 102.268L48.7132 107.703C48.8512 107.854 49.0767 107.873 49.1837 107.796L51.4756 105.235C51.7275 105.04 52.0383 104.959 52.3553 105.004C52.67 105.051 52.9459 105.219 53.1125 105.454L55.7284 108.554C56.0035 108.909 56.0532 109.38 55.8563 109.784C55.6602 110.188 55.2595 110.439 54.8115 110.439H43.187C42.546 110.439 42.0244 109.916 42.0244 109.272V103.048C42.0244 102.562 42.315 102.136 42.7653 101.96Z" fill="white"/>
<path fill-rule="evenodd" clip-rule="evenodd" d="M52.0297 103.148C51.314 103.148 50.7343 102.569 50.7343 101.854C50.7343 101.14 51.314 100.561 52.0297 100.561C52.7455 100.561 53.3252 101.14 53.3252 101.854C53.3252 102.569 52.7455 103.148 52.0297 103.148Z" fill="white"/>
<ellipse cx="138.952" cy="104.5" rx="5.48868" ry="5.5" fill="#CBD6E2"/>
<ellipse cx="154.96" cy="104.5" rx="5.48869" ry="5.5" fill="#CBD6E2"/>
<ellipse cx="170.512" cy="104.5" rx="5.48869" ry="5.5" fill="#CBD6E2"/>
</svg>
