<svg width="200" height="111" viewBox="0 0 200 111" fill="none" xmlns="http://www.w3.org/2000/svg">
<rect width="200" height="111" rx="8.56431" transform="matrix(-1 0 0 1 200 0)" fill="white"/>
<circle cx="47.5" cy="37" r="23.5" fill="#F2F5F8"/>
<path d="M54.4867 39.6779C56.7469 40.7081 58.7506 42.2105 60.3548 44.0776C61.229 45.094 61.2087 46.5964 60.3312 47.6094C57.2025 51.2201 52.6102 53.5 47.5104 53.5C42.3545 53.5 37.7194 51.1698 34.5884 47.4916C33.7582 46.5152 33.8279 45.0529 34.6627 44.081C36.2377 42.2471 38.1964 40.763 40.407 39.734C42.2195 42.2779 44.6956 43.8535 47.4249 43.8535C50.1756 43.8535 52.6698 42.2562 54.4867 39.6779ZM47.4253 21.5C51.7262 21.5 55.2262 25.0558 55.2262 29.4281C55.2262 33.2377 54.0899 36.6392 52.3203 38.8653C50.9804 40.5518 49.2782 41.566 47.4253 41.566C45.587 41.566 43.8983 40.5655 42.5641 38.9042C40.7753 36.6781 39.6244 33.2606 39.6244 29.4281C39.6244 25.0558 43.1243 21.5 47.4253 21.5Z" fill="#CBD6E2"/>
<rect x="79" y="30.2887" width="45" height="3.71133" rx="1.85567" fill="#CBD6E2"/>
<rect x="79" y="40" width="30.2593" height="3.71133" rx="1.85567" fill="#CBD6E2"/>
<rect x="132" y="25" width="44" height="4" rx="2" fill="#CBD6E2"/>
<rect x="132" y="35" width="44" height="4" rx="2" fill="#CBD6E2"/>
<rect x="132" y="45" width="44" height="4" rx="2" fill="#CBD6E2"/>
<rect width="50" height="13" rx="6.5" transform="matrix(-1 0 0 1 74 84.5)" fill="#CBD6E2"/>
<path fill-rule="evenodd" clip-rule="evenodd" d="M42.7653 87.4599C43.2157 87.284 43.7179 87.4015 44.052 87.7681L48.7132 93.2031C48.8512 93.3541 49.0767 93.3728 49.1837 93.2965L51.4756 90.7354C51.7275 90.5401 52.0383 90.4591 52.3553 90.5043C52.67 90.551 52.9459 90.7191 53.1125 90.9541L55.7284 94.0537C56.0035 94.4086 56.0532 94.8802 55.8563 95.2841C55.6602 95.688 55.2595 95.9394 54.8115 95.9394H43.187C42.546 95.9394 42.0244 95.4156 42.0244 94.772V88.5478C42.0244 88.0622 42.315 87.6358 42.7653 87.4599Z" fill="white"/>
<path fill-rule="evenodd" clip-rule="evenodd" d="M52.0297 88.6485C51.314 88.6485 50.7343 88.0694 50.7343 87.3545C50.7343 86.6396 51.314 86.0606 52.0297 86.0606C52.7455 86.0606 53.3252 86.6396 53.3252 87.3545C53.3252 88.0694 52.7455 88.6485 52.0297 88.6485Z" fill="white"/>
<ellipse cx="138.952" cy="90" rx="5.48868" ry="5.5" fill="#CBD6E2"/>
<ellipse cx="154.96" cy="90" rx="5.48869" ry="5.5" fill="#CBD6E2"/>
<ellipse cx="170.512" cy="90" rx="5.48869" ry="5.5" fill="#CBD6E2"/>
</svg>
