<svg width="200" height="124" viewBox="0 0 200 124" fill="none" xmlns="http://www.w3.org/2000/svg">
<rect width="200" height="124" rx="8.56431" transform="matrix(-1 0 0 1 200 0)" fill="white"/>
<circle cx="47.5" cy="35.5" r="23.5" fill="#F2F5F8"/>
<path d="M54.4867 38.1779C56.7469 39.2081 58.7506 40.7105 60.3548 42.5776C61.229 43.594 61.2087 45.0964 60.3312 46.1094C57.2025 49.7201 52.6102 52 47.5104 52C42.3545 52 37.7194 49.6698 34.5884 45.9916C33.7582 45.0152 33.8279 43.5529 34.6627 42.581C36.2377 40.7471 38.1964 39.263 40.407 38.234C42.2195 40.7779 44.6956 42.3535 47.4249 42.3535C50.1756 42.3535 52.6698 40.7562 54.4867 38.1779ZM47.4253 20C51.7262 20 55.2262 23.5558 55.2262 27.9281C55.2262 31.7377 54.0899 35.1392 52.3203 37.3653C50.9804 39.0518 49.2782 40.066 47.4253 40.066C45.587 40.066 43.8983 39.0655 42.5641 37.4042C40.7753 35.1781 39.6244 31.7606 39.6244 27.9281C39.6244 23.5558 43.1243 20 47.4253 20Z" fill="#CBD6E2"/>
<rect x="101.259" y="67" width="78" height="4" rx="2" fill="#CBD6E2"/>
<rect x="101.259" y="77" width="78" height="4" rx="2" fill="#CBD6E2"/>
<rect x="101.259" y="87" width="78" height="4" rx="2" fill="#CBD6E2"/>
<rect x="24" y="67" width="45" height="3.71133" rx="1.85567" fill="#CBD6E2"/>
<rect x="24" y="76.7113" width="30.2593" height="3.71133" rx="1.85567" fill="#CBD6E2"/>
<rect width="50" height="13" rx="6.5" transform="matrix(-1 0 0 1 74 99)" fill="#CBD6E2"/>
<path fill-rule="evenodd" clip-rule="evenodd" d="M42.7653 101.96C43.2157 101.784 43.7179 101.901 44.052 102.268L48.7132 107.703C48.8512 107.854 49.0767 107.873 49.1837 107.796L51.4756 105.235C51.7275 105.04 52.0383 104.959 52.3553 105.004C52.67 105.051 52.9459 105.219 53.1125 105.454L55.7284 108.554C56.0035 108.909 56.0532 109.38 55.8563 109.784C55.6602 110.188 55.2595 110.439 54.8115 110.439H43.187C42.546 110.439 42.0244 109.916 42.0244 109.272V103.048C42.0244 102.562 42.315 102.136 42.7653 101.96Z" fill="white"/>
<path fill-rule="evenodd" clip-rule="evenodd" d="M52.0297 103.148C51.314 103.148 50.7343 102.569 50.7343 101.854C50.7343 101.14 51.314 100.561 52.0297 100.561C52.7455 100.561 53.3252 101.14 53.3252 101.854C53.3252 102.569 52.7455 103.148 52.0297 103.148Z" fill="white"/>
<ellipse cx="138.952" cy="104.5" rx="5.48868" ry="5.5" fill="#CBD6E2"/>
<ellipse cx="154.96" cy="104.5" rx="5.48869" ry="5.5" fill="#CBD6E2"/>
<ellipse cx="170.512" cy="104.5" rx="5.48869" ry="5.5" fill="#CBD6E2"/>
</svg>
