<svg width="200" height="111" viewBox="0 0 200 111" fill="none" xmlns="http://www.w3.org/2000/svg">
<rect width="200" height="111" rx="8.56431" transform="matrix(-1 0 0 1 200 0)" fill="white"/>
<circle cx="152.5" cy="35.5" r="23.5" fill="#F2F5F8"/>
<path d="M159.487 38.1779C161.747 39.2081 163.751 40.7105 165.355 42.5776C166.229 43.594 166.209 45.0964 165.331 46.1094C162.203 49.7201 157.61 52 152.51 52C147.354 52 142.719 49.6698 139.588 45.9916C138.758 45.0152 138.828 43.5529 139.663 42.581C141.238 40.7471 143.196 39.263 145.407 38.234C147.219 40.7779 149.696 42.3535 152.425 42.3535C155.176 42.3535 157.67 40.7562 159.487 38.1779ZM152.425 20C156.726 20 160.226 23.5558 160.226 27.9281C160.226 31.7377 159.09 35.1392 157.32 37.3653C155.98 39.0518 154.278 40.066 152.425 40.066C150.587 40.066 148.898 39.0655 147.564 37.4042C145.775 35.1781 144.624 31.7606 144.624 27.9281C144.624 23.5558 148.124 20 152.425 20Z" fill="#CBD6E2"/>
<rect width="50" height="13" rx="6.5" transform="matrix(-1 0 0 1 177.5 67)" fill="#CBD6E2"/>
<path fill-rule="evenodd" clip-rule="evenodd" d="M146.265 69.9598C146.716 69.784 147.218 69.9015 147.552 70.268L152.213 75.7031C152.351 75.8541 152.577 75.8727 152.684 75.7965L154.976 73.2354C155.227 73.04 155.538 72.9591 155.855 73.0042C156.17 73.0509 156.446 73.219 156.613 73.454L159.228 76.5537C159.504 76.9086 159.553 77.3802 159.356 77.784C159.16 78.1879 158.759 78.4393 158.311 78.4393H146.687C146.046 78.4393 145.524 77.9156 145.524 77.272V71.0478C145.524 70.5622 145.815 70.1357 146.265 69.9598Z" fill="white"/>
<path fill-rule="evenodd" clip-rule="evenodd" d="M155.53 71.1484C154.814 71.1484 154.234 70.5694 154.234 69.8545C154.234 69.1396 154.814 68.5605 155.53 68.5605C156.245 68.5605 156.825 69.1396 156.825 69.8545C156.825 70.5694 156.245 71.1484 155.53 71.1484Z" fill="white"/>
<ellipse cx="136.72" cy="93.5" rx="5.48868" ry="5.5" fill="#CBD6E2"/>
<ellipse cx="152.729" cy="93.5" rx="5.48869" ry="5.5" fill="#CBD6E2"/>
<ellipse cx="168.281" cy="93.5" rx="5.48869" ry="5.5" fill="#CBD6E2"/>
<rect x="24" y="24.7887" width="59.2593" height="3.71133" rx="1.85567" fill="#CBD6E2"/>
<rect x="24" y="34.5" width="42.2593" height="3.71133" rx="1.85567" fill="#CBD6E2"/>
<rect x="24" y="62.2114" width="84" height="4" rx="2" fill="#CBD6E2"/>
<rect x="24" y="72.2114" width="84" height="4" rx="2" fill="#CBD6E2"/>
<rect x="24" y="82.2114" width="84" height="4" rx="2" fill="#CBD6E2"/>
</svg>
