<svg width="200" height="141" viewBox="0 0 200 141" fill="none" xmlns="http://www.w3.org/2000/svg">
<rect width="200" height="140.423" rx="8.56431" transform="matrix(-1 0 0 1 200 0)" fill="white"/>
<rect x="24" y="12" width="59.2593" height="3.71133" rx="1.85567" fill="#CBD6E2"/>
<rect x="24" y="21.7114" width="42.2593" height="3.71133" rx="1.85567" fill="#CBD6E2"/>
<rect x="83" y="48.9229" width="108" height="4" rx="2" fill="#CBD6E2"/>
<rect x="83" y="58.9229" width="108" height="4" rx="2" fill="#CBD6E2"/>
<rect x="83" y="68.9229" width="108" height="4" rx="2" fill="#CBD6E2"/>
<circle cx="47.5" cy="60.9229" r="23.5" fill="#F2F5F8"/>
<path d="M54.4867 63.6008C56.7469 64.6309 58.7506 66.1333 60.3548 68.0004C61.229 69.0169 61.2087 70.5192 60.3312 71.5323C57.2025 75.143 52.6102 77.4228 47.5104 77.4228C42.3545 77.4228 37.7194 75.0927 34.5884 71.4145C33.7582 70.4381 33.8279 68.9757 34.6627 68.0039C36.2377 66.1699 38.1964 64.6858 40.407 63.6568C42.2195 66.2008 44.6956 67.7763 47.4249 67.7763C50.1756 67.7763 52.6698 66.1791 54.4867 63.6008ZM47.4253 45.4229C51.7262 45.4229 55.2262 48.9787 55.2262 53.3509C55.2262 57.1606 54.0899 60.5621 52.3203 62.7882C50.9804 64.4746 49.2782 65.4888 47.4253 65.4888C45.587 65.4888 43.8983 64.4884 42.5641 62.8271C40.7753 60.6009 39.6244 57.1834 39.6244 53.3509C39.6244 48.9787 43.1243 45.4229 47.4253 45.4229Z" fill="#CBD6E2"/>
<ellipse cx="84.2201" cy="101.923" rx="5.48868" ry="5.5" fill="#CBD6E2"/>
<ellipse cx="100.229" cy="101.923" rx="5.48869" ry="5.5" fill="#CBD6E2"/>
<ellipse cx="115.781" cy="101.923" rx="5.48869" ry="5.5" fill="#CBD6E2"/>
<rect width="50" height="13" rx="6.5" transform="matrix(-1 0 0 1 125 115.423)" fill="#CBD6E2"/>
<path fill-rule="evenodd" clip-rule="evenodd" d="M93.7653 118.383C94.2157 118.207 94.7179 118.324 95.052 118.691L99.7132 124.126C99.8512 124.277 100.077 124.295 100.184 124.219L102.476 121.658C102.727 121.463 103.038 121.382 103.355 121.427C103.67 121.474 103.946 121.642 104.113 121.877L106.728 124.976C107.004 125.331 107.053 125.803 106.856 126.207C106.66 126.611 106.259 126.862 105.811 126.862H94.187C93.546 126.862 93.0244 126.338 93.0244 125.695V119.471C93.0244 118.985 93.315 118.558 93.7653 118.383Z" fill="white"/>
<path fill-rule="evenodd" clip-rule="evenodd" d="M103.03 119.571C102.314 119.571 101.734 118.992 101.734 118.277C101.734 117.562 102.314 116.983 103.03 116.983C103.745 116.983 104.325 117.562 104.325 118.277C104.325 118.992 103.745 119.571 103.03 119.571Z" fill="white"/>
</svg>
