<svg width="200" height="151" viewBox="0 0 200 151" fill="none" xmlns="http://www.w3.org/2000/svg">
<rect width="200" height="151" rx="8.56431" transform="matrix(-1 0 0 1 200 0)" fill="white"/>
<rect x="24" y="28.7886" width="59.2593" height="3.71133" rx="1.85567" fill="#CBD6E2"/>
<rect x="24" y="38.5" width="42.2593" height="3.71133" rx="1.85567" fill="#CBD6E2"/>
<circle cx="152.5" cy="35.5" r="23.5" fill="#F2F5F8"/>
<path d="M159.487 38.1779C161.747 39.2081 163.751 40.7105 165.355 42.5776C166.229 43.594 166.209 45.0964 165.331 46.1094C162.203 49.7201 157.61 52 152.51 52C147.354 52 142.719 49.6698 139.588 45.9916C138.758 45.0152 138.828 43.5529 139.663 42.581C141.238 40.7471 143.196 39.263 145.407 38.234C147.219 40.7779 149.696 42.3535 152.425 42.3535C155.176 42.3535 157.67 40.7562 159.487 38.1779ZM152.425 20C156.726 20 160.226 23.5558 160.226 27.9281C160.226 31.7377 159.09 35.1392 157.32 37.3653C155.98 39.0518 154.278 40.066 152.425 40.066C150.587 40.066 148.898 39.0655 147.564 37.4042C145.775 35.1781 144.624 31.7606 144.624 27.9281C144.624 23.5558 148.124 20 152.425 20Z" fill="#CBD6E2"/>
<rect x="24" y="71" width="108" height="4" rx="2" fill="#CBD6E2"/>
<rect x="24" y="81" width="108" height="4" rx="2" fill="#CBD6E2"/>
<rect x="24" y="91" width="108" height="4" rx="2" fill="#CBD6E2"/>
<ellipse cx="84.2201" cy="112.5" rx="5.48868" ry="5.5" fill="#CBD6E2"/>
<ellipse cx="100.229" cy="112.5" rx="5.48869" ry="5.5" fill="#CBD6E2"/>
<ellipse cx="115.781" cy="112.5" rx="5.48869" ry="5.5" fill="#CBD6E2"/>
<rect width="50" height="13" rx="6.5" transform="matrix(-1 0 0 1 125 126)" fill="#CBD6E2"/>
<path fill-rule="evenodd" clip-rule="evenodd" d="M93.7653 128.96C94.2157 128.784 94.7179 128.901 95.052 129.268L99.7132 134.703C99.8512 134.854 100.077 134.873 100.184 134.796L102.476 132.235C102.727 132.04 103.038 131.959 103.355 132.004C103.67 132.051 103.946 132.219 104.113 132.454L106.728 135.554C107.004 135.908 107.053 136.38 106.856 136.784C106.66 137.188 106.259 137.439 105.811 137.439H94.187C93.546 137.439 93.0244 136.915 93.0244 136.272V130.048C93.0244 129.562 93.315 129.136 93.7653 128.96Z" fill="white"/>
<path fill-rule="evenodd" clip-rule="evenodd" d="M103.03 130.148C102.314 130.148 101.734 129.569 101.734 128.854C101.734 128.14 102.314 127.561 103.03 127.561C103.745 127.561 104.325 128.14 104.325 128.854C104.325 129.569 103.745 130.148 103.03 130.148Z" fill="white"/>
</svg>
